<?xml version="1.0" encoding="utf-8"?>
<!-- Generator: Adobe Illustrator 24.0.0, SVG Export Plug-In . SVG Version: 6.00 Build 0)  -->
<svg version="1.1" id="レイヤー_1" xmlns="http://www.w3.org/2000/svg" xmlns:xlink="http://www.w3.org/1999/xlink" x="0px"
	 y="0px" viewBox="0 0 600 180.19" style="enable-background:new 0 0 600 180.19;" xml:space="preserve">
<style type="text/css">
	.st0{fill:#E60012;}
	.st1{fill:#00A0E9;}
	.st2{fill:#FFFFFF;stroke:#000000;stroke-miterlimit:10;}
	.st3{fill:#FFFFFF;}
	.st4{fill:#009944;}
</style>
<g>
	<path class="st0" d="M90.16,111.07c1.32,0,2.09,0.77,2.31,2.31v11.54c-0.22,1.28-0.99,2-2.31,2.18c-1.63-0.09-2.4-0.83-2.31-2.24
		v-3.03H70.31v40.63c0,2.2-1.19,2.95-3.56,2.24l-10.22-2.51c-1.5-0.26-2.11-1.21-1.85-2.84c0.26-1.76,1.3-2.38,3.1-1.85l7.58,1.71
		v-37.4H41.75c-1.67,0-2.51-0.83-2.51-2.51c0-1.67,0.83-2.51,2.51-2.51h23.61v-6.2c0-1.67,0.83-2.51,2.51-2.51
		c1.67-0.04,2.51,0.86,2.51,2.7v6h17.48v-3.36C87.81,111.86,88.58,111.07,90.16,111.07z M59.69,134.22
		c-0.88,2.6-2.4,5.98-4.55,10.16c-2.16,4.18-5.58,8.86-10.29,14.05c-1.23,0.79-2.37,0.83-3.43,0.13c-1.01-1.19-1.03-2.4-0.07-3.63
		c4.26-4.79,7.4-9.11,9.4-12.96c2-3.85,3.31-6.83,3.92-8.94c0.4-1.58,1.43-2.2,3.1-1.85C59.4,131.62,60.04,132.63,59.69,134.22z
		 M93.85,158.95c-0.92,1.45-2.07,1.76-3.43,0.92c-8.79-6.86-13.68-15.65-14.64-26.38c-0.09-1.85,0.66-2.77,2.24-2.77
		c1.49-0.04,2.42,0.64,2.77,2.04c0.83,9.37,4.9,16.97,12.2,22.82C94.18,156.55,94.47,157.67,93.85,158.95z M96.43,111.07
		c1.32,0,2.09,0.77,2.31,2.31v11.54c-0.22,1.28-0.99,2-2.31,2.18c-1.63-0.09-2.4-0.83-2.31-2.24v-11.41
		C94.07,111.86,94.84,111.07,96.43,111.07z"/>
	<path class="st0" d="M143.8,119.05c1.45,0.53,1.87,1.56,1.25,3.1c-5.14,15.13-12.03,25.9-20.64,32.32
		c-8.62,6.42-15.7,10.05-21.24,10.88c-1.71,0-2.66-0.81-2.84-2.44c-0.18-1.41,0.64-2.27,2.44-2.57c4.7-0.84,10.95-4.19,18.73-10.06
		s14.05-15.77,18.8-29.71C140.96,118.94,142.12,118.43,143.8,119.05z M105.87,111.59l18.6,11.94c1.36,0.84,1.6,2,0.73,3.5
		c-0.92,1.06-2.09,1.28-3.5,0.66l-18.6-11.67c-1.41-1.01-1.65-2.18-0.73-3.5C103.21,111.07,104.38,110.76,105.87,111.59z"/>
	<path class="st0" d="M190.77,160.53c-6.24,3.17-12.62,4.63-19.13,4.39c-6.51-0.24-10.92-2.02-13.22-5.34
		c-2.31-3.32-3.46-6.45-3.46-9.4c-0.35-14.51-0.53-27.33-0.53-38.45c0.04-1.8,0.9-2.64,2.57-2.51c1.54,0.18,2.35,1.01,2.44,2.51
		c0,7.96,0.07,14.53,0.2,19.72l21.5-22.82c1.06-1.06,2.31-1.06,3.76,0c0.83,1.1,0.83,2.24,0,3.43l-25.2,26.91l0.26,11.21
		c0,2.24,0.87,4.36,2.6,6.36c1.74,2,5.14,3.12,10.22,3.36c5.08,0.24,10.21-1,15.4-3.73c1.27-0.83,2.44-0.55,3.5,0.86
		C192.57,158.36,192.26,159.52,190.77,160.53z M191.03,112.45c1.58,0.13,2.37,0.95,2.37,2.44v11.81c0.13,1.45-0.66,2.24-2.37,2.37
		c-1.63-0.09-2.44-0.88-2.44-2.37v-11.81C188.59,113.27,189.41,112.45,191.03,112.45z M197.1,110.34c1.58,0.13,2.37,0.95,2.37,2.44
		v11.81c0.13,1.45-0.66,2.24-2.37,2.37c-1.63-0.09-2.44-0.88-2.44-2.37v-11.81C194.66,111.15,195.47,110.34,197.1,110.34z"/>
	<path class="st0" d="M253.24,135.73c1.67,0,2.53,0.79,2.57,2.37c-0.09,1.71-0.92,2.57-2.51,2.57c-26.56,0.35-41.31-0.13-44.26-1.45
		c-1.8-0.7-2.7-1.85-2.7-3.43c0.13-1.67,1.06-2.18,2.77-1.52C211.98,135.65,226.68,136.13,253.24,135.73z"/>
	<path class="st0" d="M303.32,141.01c-2.55,8.66-9.23,16.58-20.05,23.74c-1.41,0.57-2.53,0.37-3.36-0.59
		c-1.14-1.28-0.9-2.46,0.73-3.56c13.19-8.66,20.36-21.44,21.5-38.32h-33.7c0,4.13,0.15,8.51,0.46,13.13
		c-0.18,1.76-0.9,2.57-2.18,2.44c-1.67,0.22-2.62-0.59-2.84-2.44c-0.31-5.98-0.55-11.19-0.73-15.63c0-0.83,0.13-1.46,0.4-1.88
		c0.26-0.42,0.99-0.63,2.18-0.63h17.02v-9.89c0-1.71,0.83-2.57,2.51-2.57c1.71,0,2.57,0.86,2.57,2.57v9.89h16.55
		c1.58-0.13,2.42,0.68,2.51,2.44C307.05,125.25,305.87,132.35,303.32,141.01z"/>
	<path class="st0" d="M355.77,136.79c-0.09,1.63-0.92,2.44-2.51,2.44h-4.62c-0.4,8.09-0.77,15.5-1.12,22.23
		c-0.13,2.29-1.28,3.47-3.43,3.56c-1.5,0.26-3.42-0.32-5.77-1.75c-2.35-1.43-4.3-2.8-5.84-4.12c-1.23-0.92-1.23-2.13,0-3.63
		c1.1-1.1,2.26-1.12,3.5-0.07c1.49,1.41,3.28,2.77,5.34,4.09c0.75,0.48,1.16,0.55,1.25,0.2c0.31-5.89,0.59-11.7,0.86-17.41
		c-5.63,5.94-10.75,11.45-15.37,16.55c-1.28,1.01-2.46,1.1-3.56,0.26c-1.28-1.1-1.28-2.31,0-3.63c5.98-6.51,11.08-11.94,15.3-16.29
		h-11.74c-1.63-0.22-2.44-1.03-2.44-2.44c0.04-1.71,0.88-2.57,2.51-2.57h15.83l0.26-4.88c0.09-1.63,0.92-2.46,2.51-2.51
		c1.67,0.26,2.44,1.25,2.31,2.97v4.42h4.16C354.86,134.22,355.72,135.07,355.77,136.79z"/>
	<path class="st0" d="M415.34,135.73c1.67,0,2.53,0.79,2.57,2.37c-0.09,1.71-0.92,2.57-2.51,2.57c-26.56,0.35-41.31-0.13-44.26-1.45
		c-1.8-0.7-2.7-1.85-2.7-3.43c0.13-1.67,1.05-2.18,2.77-1.52C374.07,135.65,388.78,136.13,415.34,135.73z"/>
	<path class="st0" d="M457.43,164.23c-0.83,1.1-2.33,1.32-4.48,0.66c-2.77-1.1-4.85-2.78-6.23-5.05c-1.38-2.26-2.56-4.56-3.53-6.89
		c-0.62-1.63-0.2-2.79,1.25-3.5c1.45-0.35,2.57,0.15,3.36,1.52c1.01,2.51,2.33,4.86,3.96,7.06c0.75,1.1,1.36,1.65,1.85,1.65
		c0.48,0,0.81-0.33,0.99-0.99c5.63-9.58,8.42-21.87,8.38-36.87l-11.61,0.2c-0.66,16.84-8.03,30.19-22.1,40.04
		c-1.5,0.66-2.66,0.35-3.5-0.92c-1.01-1.45-0.77-2.59,0.73-3.43c12.4-8.79,19.02-20.69,19.85-35.68h-17.61
		c-1.67-0.17-2.51-1.01-2.51-2.51c-0.04-1.71,0.81-2.55,2.57-2.51h17.81c0-2.95-0.09-5.98-0.26-9.1c-0.13-1.85,0.5-2.79,1.91-2.84
		c1.49-0.17,2.44,0.57,2.84,2.24c0.53,3.34,0.73,6.49,0.59,9.43h13.52c0.66,0,1.24,0.17,1.75,0.49c0.5,0.33,0.78,1.02,0.82,2.08
		C469.37,135.54,465.92,150.51,457.43,164.23z"/>
	<path class="st0" d="M523.4,135.73c1.67,0,2.53,0.79,2.57,2.37c-0.09,1.71-0.92,2.57-2.51,2.57c-26.56,0.35-41.31-0.13-44.26-1.45
		c-1.8-0.7-2.7-1.85-2.7-3.43c0.13-1.67,1.05-2.18,2.77-1.52C482.13,135.65,496.84,136.13,523.4,135.73z"/>
	<path class="st0" d="M547.98,153.67c0.86-1.32,2.12-1.85,3.79-1.58c0.97,0.13,1.77,0.85,2.41,2.14c0.64,1.3,0.74,3.04,0.3,5.24
		c-0.35,1.32-0.95,2.63-1.78,3.92c-0.84,1.3-2.04,1.86-3.63,1.68c-1.58-0.48-2.51-1.46-2.77-2.94c-0.26-1.47-0.26-2.91,0-4.32
		C546.56,156.38,547.12,154.99,547.98,153.67z M562.39,106.65c1.54,0.35,2.15,1.43,1.85,3.23l-7.45,34.23
		c-0.53,1.71-1.54,2.35-3.03,1.91c-1.63-0.62-2.29-1.58-1.98-2.9l7.45-34.49C559.45,107.04,560.5,106.38,562.39,106.65z"/>
</g>
<g>
	<path class="st1" d="M86.27,108.05c1.32,0,2.09,0.77,2.31,2.31v11.54c-0.22,1.28-0.99,2-2.31,2.18c-1.63-0.09-2.4-0.83-2.31-2.24
		v-3.03H66.42v40.63c0,2.2-1.19,2.95-3.56,2.24l-10.22-2.51c-1.5-0.26-2.11-1.21-1.85-2.84c0.26-1.76,1.3-2.38,3.1-1.85l7.58,1.71
		v-37.4H37.86c-1.67,0-2.51-0.83-2.51-2.51c0-1.67,0.83-2.51,2.51-2.51h23.61v-6.2c0-1.67,0.83-2.51,2.51-2.51
		c1.67-0.04,2.51,0.86,2.51,2.7v6h17.48v-3.36C83.92,108.84,84.69,108.05,86.27,108.05z M55.8,131.2c-0.88,2.6-2.4,5.98-4.55,10.16
		c-2.16,4.18-5.58,8.86-10.29,14.05c-1.23,0.79-2.37,0.83-3.43,0.13c-1.01-1.19-1.03-2.4-0.07-3.63c4.26-4.79,7.4-9.11,9.4-12.96
		c2-3.85,3.31-6.83,3.92-8.94c0.4-1.58,1.43-2.2,3.1-1.85C55.52,128.6,56.15,129.61,55.8,131.2z M89.97,155.93
		c-0.92,1.45-2.07,1.76-3.43,0.92c-8.79-6.86-13.68-15.65-14.64-26.38c-0.09-1.85,0.66-2.77,2.24-2.77
		c1.49-0.04,2.42,0.64,2.77,2.04c0.83,9.37,4.9,16.97,12.2,22.82C90.3,153.53,90.58,154.65,89.97,155.93z M92.54,108.05
		c1.32,0,2.09,0.77,2.31,2.31v11.54c-0.22,1.28-0.99,2-2.31,2.18c-1.63-0.09-2.4-0.83-2.31-2.24v-11.41
		C90.19,108.84,90.96,108.05,92.54,108.05z"/>
	<path class="st1" d="M139.91,116.03c1.45,0.53,1.87,1.56,1.25,3.1c-5.14,15.13-12.03,25.9-20.64,32.32
		c-8.62,6.42-15.7,10.05-21.24,10.88c-1.71,0-2.66-0.81-2.84-2.44c-0.18-1.41,0.64-2.27,2.44-2.57c4.7-0.84,10.95-4.19,18.73-10.06
		c7.78-5.87,14.05-15.77,18.8-29.71C137.07,115.92,138.24,115.41,139.91,116.03z M101.99,108.57l18.6,11.94
		c1.36,0.84,1.6,2,0.73,3.5c-0.92,1.06-2.09,1.28-3.5,0.66l-18.6-11.67c-1.41-1.01-1.65-2.18-0.73-3.5
		C99.32,108.05,100.49,107.74,101.99,108.57z"/>
	<path class="st1" d="M186.88,157.51c-6.24,3.17-12.62,4.63-19.13,4.39c-6.51-0.24-10.92-2.02-13.22-5.34
		c-2.31-3.32-3.46-6.45-3.46-9.4c-0.35-14.51-0.53-27.33-0.53-38.45c0.04-1.8,0.9-2.64,2.57-2.51c1.54,0.18,2.35,1.01,2.44,2.51
		c0,7.96,0.07,14.53,0.2,19.72l21.5-22.82c1.06-1.06,2.31-1.06,3.76,0c0.83,1.1,0.83,2.24,0,3.43l-25.2,26.91l0.26,11.21
		c0,2.24,0.87,4.36,2.6,6.36c1.74,2,5.14,3.12,10.22,3.36c5.08,0.24,10.21-1,15.4-3.73c1.27-0.83,2.44-0.55,3.5,0.86
		C188.69,155.34,188.38,156.5,186.88,157.51z M187.15,109.43c1.58,0.13,2.37,0.95,2.37,2.44v11.81c0.13,1.45-0.66,2.24-2.37,2.37
		c-1.63-0.09-2.44-0.88-2.44-2.37v-11.81C184.71,110.25,185.52,109.43,187.15,109.43z M193.22,107.32c1.58,0.13,2.37,0.95,2.37,2.44
		v11.81c0.13,1.45-0.66,2.24-2.37,2.37c-1.63-0.09-2.44-0.88-2.44-2.37v-11.81C190.78,108.13,191.59,107.32,193.22,107.32z"/>
	<path class="st1" d="M249.36,132.71c1.67,0,2.53,0.79,2.57,2.37c-0.09,1.71-0.92,2.57-2.51,2.57c-26.56,0.35-41.31-0.13-44.26-1.45
		c-1.8-0.7-2.7-1.85-2.7-3.43c0.13-1.67,1.06-2.18,2.77-1.52C208.09,132.63,222.8,133.11,249.36,132.71z"/>
	<path class="st1" d="M299.43,137.99c-2.55,8.66-9.23,16.58-20.05,23.74c-1.41,0.57-2.53,0.37-3.36-0.59
		c-1.14-1.28-0.9-2.46,0.73-3.56c13.19-8.66,20.36-21.44,21.5-38.32h-33.7c0,4.13,0.15,8.51,0.46,13.13
		c-0.18,1.76-0.9,2.57-2.18,2.44c-1.67,0.22-2.62-0.59-2.84-2.44c-0.31-5.98-0.55-11.19-0.73-15.63c0-0.83,0.13-1.46,0.4-1.88
		c0.26-0.42,0.99-0.63,2.18-0.63h17.02v-9.89c0-1.71,0.83-2.57,2.51-2.57c1.71,0,2.57,0.86,2.57,2.57v9.89h16.55
		c1.58-0.13,2.42,0.68,2.51,2.44C303.17,122.23,301.98,129.33,299.43,137.99z"/>
	<path class="st1" d="M351.88,133.77c-0.09,1.63-0.92,2.44-2.51,2.44h-4.62c-0.4,8.09-0.77,15.5-1.12,22.23
		c-0.13,2.29-1.28,3.47-3.43,3.56c-1.5,0.26-3.42-0.32-5.77-1.75c-2.35-1.43-4.3-2.8-5.84-4.12c-1.23-0.92-1.23-2.13,0-3.63
		c1.1-1.1,2.26-1.12,3.5-0.07c1.49,1.41,3.28,2.77,5.34,4.09c0.75,0.48,1.16,0.55,1.25,0.2c0.31-5.89,0.59-11.7,0.86-17.41
		c-5.63,5.94-10.75,11.45-15.37,16.55c-1.28,1.01-2.46,1.1-3.56,0.26c-1.28-1.1-1.28-2.31,0-3.63c5.98-6.51,11.08-11.94,15.3-16.29
		h-11.74c-1.63-0.22-2.44-1.03-2.44-2.44c0.04-1.71,0.88-2.57,2.51-2.57h15.83l0.26-4.88c0.09-1.63,0.92-2.46,2.51-2.51
		c1.67,0.26,2.44,1.25,2.31,2.97v4.42h4.16C350.98,131.2,351.83,132.05,351.88,133.77z"/>
	<path class="st1" d="M411.45,132.71c1.67,0,2.53,0.79,2.57,2.37c-0.09,1.71-0.92,2.57-2.51,2.57c-26.56,0.35-41.31-0.13-44.26-1.45
		c-1.8-0.7-2.7-1.85-2.7-3.43c0.13-1.67,1.05-2.18,2.77-1.52C370.18,132.63,384.89,133.11,411.45,132.71z"/>
	<path class="st1" d="M453.54,161.21c-0.83,1.1-2.33,1.32-4.48,0.66c-2.77-1.1-4.85-2.78-6.23-5.05c-1.38-2.26-2.56-4.56-3.53-6.89
		c-0.62-1.63-0.2-2.79,1.25-3.5c1.45-0.35,2.57,0.15,3.36,1.52c1.01,2.51,2.33,4.86,3.96,7.06c0.75,1.1,1.36,1.65,1.85,1.65
		c0.48,0,0.81-0.33,0.99-0.99c5.63-9.58,8.42-21.87,8.38-36.87l-11.61,0.2c-0.66,16.84-8.03,30.19-22.1,40.04
		c-1.5,0.66-2.66,0.35-3.5-0.92c-1.01-1.45-0.77-2.59,0.73-3.43c12.4-8.79,19.02-20.69,19.85-35.68h-17.61
		c-1.67-0.17-2.51-1.01-2.51-2.51c-0.04-1.71,0.81-2.55,2.57-2.51h17.81c0-2.95-0.09-5.98-0.26-9.1c-0.13-1.85,0.5-2.79,1.91-2.84
		c1.49-0.17,2.44,0.57,2.84,2.24c0.53,3.34,0.73,6.49,0.59,9.43h13.52c0.66,0,1.24,0.17,1.75,0.49c0.5,0.33,0.78,1.02,0.82,2.08
		C465.48,132.52,462.03,147.49,453.54,161.21z"/>
	<path class="st1" d="M519.51,132.71c1.67,0,2.53,0.79,2.57,2.37c-0.09,1.71-0.92,2.57-2.51,2.57c-26.56,0.35-41.31-0.13-44.26-1.45
		c-1.8-0.7-2.7-1.85-2.7-3.43c0.13-1.67,1.05-2.18,2.77-1.52C478.25,132.63,492.96,133.11,519.51,132.71z"/>
	<path class="st1" d="M544.1,150.65c0.86-1.32,2.12-1.85,3.79-1.58c0.97,0.13,1.77,0.85,2.41,2.14c0.64,1.3,0.74,3.04,0.3,5.24
		c-0.35,1.32-0.95,2.63-1.78,3.92c-0.84,1.3-2.04,1.86-3.63,1.68c-1.58-0.48-2.51-1.46-2.77-2.94c-0.26-1.47-0.26-2.91,0-4.32
		C542.68,153.36,543.24,151.97,544.1,150.65z M558.51,103.63c1.54,0.35,2.15,1.43,1.85,3.23l-7.45,34.23
		c-0.53,1.71-1.54,2.35-3.03,1.91c-1.63-0.62-2.29-1.58-1.98-2.9l7.45-34.49C555.56,104.02,556.62,103.36,558.51,103.63z"/>
</g>
<g>
	<g>
		<polygon class="st2" points="241.8,98.18 234.7,70.13 204.37,88.57 		"/>
		<ellipse class="st2" cx="155.67" cy="51.19" rx="117.08" ry="41.38"/>
	</g>
	<g>
		<g>
			<path class="st3" d="M218.76,82.42c-2.07,0.78-4.14,1.55-6.21,2.33c-1.16,0.44-1.99,1.45-1.79,2.74
				c0.17,1.16,1.19,2.25,2.46,2.17c2.08-0.13,4.16-0.27,6.23-0.54c2.22-0.29,4.01-1.14,6.11-1.82c1.75-0.57,3.59-0.81,5.21-1.72
				c0.73-0.41,1.35-0.96,2.11-1.35c0.98-0.49,2.01-0.9,3-1.34c-1.22-0.94-2.45-1.88-3.67-2.82c-0.01,0.08-0.03,0.15-0.04,0.23
				c0.21-0.37,0.43-0.74,0.64-1.1c0.18-0.21-0.63,0.1-0.74,0.12c-0.46,0.09-0.91,0.15-1.37,0.2c-1.18,0.13-2.36,0.23-3.54,0.41
				c-2.18,0.32-3.98,1.11-5.78,2.36c-1.86,1.3-3.95,1.32-6.15,1.58c-2.56,0.3-5.12,0.6-7.68,0.9c-1.34,0.16-2.5,1.04-2.5,2.5
				c0,1.23,1.15,2.66,2.5,2.5c2.88-0.34,5.76-0.68,8.64-1.02c2.87-0.34,5.45-0.56,7.87-2.26c0.86-0.6,1.65-1.13,2.67-1.4
				c1.1-0.29,2.22-0.39,3.35-0.51c2.26-0.23,6.41-0.28,6.95-3.18c0.42-2.26-1.64-3.72-3.67-2.82c-1.63,0.72-3.17,1.4-4.64,2.39
				c-1.33,0.89-2.99,1.03-4.49,1.52c-1.73,0.56-3.29,1.4-5.11,1.68c-1.94,0.3-3.93,0.38-5.89,0.5c0.22,1.64,0.44,3.27,0.66,4.91
				c2.07-0.78,4.14-1.55,6.21-2.33c1.26-0.47,2.13-1.69,1.75-3.08C221.51,82.95,220.04,81.94,218.76,82.42L218.76,82.42z"/>
		</g>
	</g>
</g>
<g>
	<path class="st0" d="M77.02,34.34c1.19,2.09,1.79,3.76,1.79,4.98c0,1.4-0.64,4.02-1.92,7.86c-1.65,4.71-3.02,8.03-4.12,9.95
		c1.28,0.18,2.61,0.52,3.98,1.05c0.73,0.35,1.74,0.88,3.02,1.57c0.46-2.09,0.5-3.31,0.14-3.67c-0.18,0.18-0.32,0.44-0.41,0.79
		c-0.55-0.87-0.64-1.66-0.27-2.36c0.55-1.05,1.42-0.79,2.61,0.79c0.73,1.4,1.01,3.23,0.82,5.5l1.51,1.31
		c1.28,1.05,2.1,2.27,2.47,3.67c0.27,1.05,0.14,1.66-0.41,1.83c-0.82-0.35-2.29-1.22-4.39-2.62c-1.47,2.97-2.93,5.15-4.39,6.55
		c-1.47,1.4-3.11,2.79-4.94,4.19c0.73-1.05,1.74-2.7,3.02-4.98c1.28-2.27,2.38-4.8,3.3-7.59c-1.47-1.05-2.61-1.66-3.43-1.83
		c-1.56-0.52-2.98-0.79-4.26-0.79l-3.71,6.81c-1.01,1.57-1.83,2.53-2.47,2.88C64.47,70.74,64.02,71,63.56,71
		c-0.55,0-1.1-1.57-1.65-4.71c-1.01-1.57-1.47-2.88-1.37-3.93c0.18-1.4,0.73-2.44,1.65-3.14c1.19-0.87,2.65-1.48,4.39-1.83
		c1.1-0.17,2.1-0.26,3.02-0.26c0.82-1.74,1.6-3.49,2.33-5.24c2.93-6.98,4.35-11.96,4.26-14.93c0-1.05-0.27-1.57-0.82-1.57
		c-1.37,1.4-2.52,2.27-3.43,2.62c-1.19,0.35-2.11-0.17-2.75-1.57c-0.64-1.22-1.05-2.18-1.24-2.88c1.01,0.7,1.92,0.96,2.75,0.79
		c1.28-0.35,2.65-0.79,4.12-1.31C75.55,33.03,76.28,33.47,77.02,34.34z M63.01,61.83c-0.46,0.35-0.73,0.79-0.82,1.31
		c0.27,1.4,0.87,2.45,1.79,3.14c1.1-0.87,2.29-2.62,3.57-5.24c-0.55-0.17-1.33-0.17-2.33,0C64.47,61.22,63.74,61.48,63.01,61.83z"/>
	<path class="st0" d="M110.11,30.41c0.27,0.35,0.59,0.88,0.96,1.57c0,0.7-0.09,1.22-0.27,1.57c-5.77,10.47-9.11,17.54-10.02,21.21
		c0.73-1.4,1.65-2.88,2.75-4.45c0.64-0.87,1.24-1.13,1.78-0.79c1.19,0.52,1.88,3.06,2.06,7.59c0.18,7.33,0.96,11.61,2.33,12.83
		c1.01,0.7,1.97,1.05,2.88,1.05c1.01-0.17,2.01-0.87,3.02-2.09c1.28-1.57,2.7-3.67,4.26-6.28c-0.09,0.7-0.41,1.66-0.96,2.88
		c-1.1,2.62-2.33,4.8-3.71,6.55c-1.01,1.4-2.33,2.19-3.98,2.36c-1.65,0-3.02-1.05-4.12-3.14c-1.47-2.97-2.2-6.37-2.2-10.21
		c-0.09-4.54-0.14-7.42-0.14-8.64c-0.27-1.4-0.6-1.48-0.96-0.26c-1.1,2.97-1.92,4.89-2.47,5.76c-2.2,3.49-4.17,7.07-5.9,10.74
		c-0.55,1.57-1.01,2.97-1.37,4.19c-0.46,0.35-0.78,0.18-0.96-0.52c-0.46-1.57-0.64-3.05-0.55-4.45c0.09-1.05,0.64-2.09,1.65-3.14
		c1.1-2.62,2.47-6.19,4.12-10.74c1.74-4.36,3.39-8.29,4.94-11.78c1.83-4.19,3.34-7.5,4.53-9.95c0.18-0.87,0.09-1.48-0.27-1.83
		c0.36-0.7,0.78-0.87,1.24-0.52C109.29,29.89,109.74,30.06,110.11,30.41z"/>
	<path class="st0" d="M137.85,25.43c0.18,1.22,0.14,2.62-0.14,4.19c0.36,1.57,1.1,2.88,2.2,3.93c0.55,0.52,0.82,1.22,0.82,2.09
		c0,1.22-1.37,3.06-4.12,5.5c-0.55,0.35-1.15,0.7-1.79,1.05c-3.94,9.6-6.55,15.19-7.83,16.76c-0.92-0.52-1.37-1.74-1.37-3.67
		l0.14-0.79c0.91-1.92,1.74-3.67,2.47-5.24c1.01-2.09,2.1-4.71,3.3-7.86c-0.92-0.7-2.01-1.92-3.3-3.67
		c0.27-0.17,0.69-0.35,1.24-0.52c0.36,0,0.87,0.26,1.51,0.79c0.55,0.35,1.1,0.35,1.65,0c1.01-2.44,1.69-4.71,2.06-6.81
		c0.73-2.44,1.01-4.28,0.82-5.5c-0.09-0.52-0.32-0.96-0.69-1.31c0.27-0.7,0.64-1.05,1.1-1.05
		C136.47,23.52,137.11,24.21,137.85,25.43z M148.01,46.91c0.73,1.22,1.01,2.45,0.82,3.67c-0.09,0.88-0.5,1.49-1.24,1.83
		c-0.55,0-1.05-0.09-1.51-0.26c-0.82-0.35-1.6-1.31-2.33-2.88c-0.55-1.4-1.24-1.83-2.06-1.31c-0.46,0.18-0.78,1.66-0.96,4.45
		c-0.09,1.22-0.14,3.4-0.14,6.55c0.36,0,0.78,0.09,1.24,0.26c1.28,0.52,2.42,1.31,3.43,2.36c1.19,1.57,1.6,2.88,1.24,3.93
		c-1.47,0.52-2.84,0.96-4.12,1.31v-0.26c0.46-0.7,0.87-1.31,1.24-1.83c-0.27-0.52-1.28-0.79-3.02-0.79c0,1.22,0.04,2.53,0.14,3.93
		c0.09,1.4,0.14,2.88,0.14,4.45c0,2.09-0.05,3.76-0.14,4.98c0,1.4-0.41,1.92-1.24,1.57l-1.65-0.52c-1.92-1.75-3.3-4.01-4.12-6.81
		c-0.92-2.97-1.33-5.06-1.24-6.28c0.18-1.05,0.55-1.92,1.1-2.62c1.01-1.22,2.1-2.09,3.3-2.62c0.55-0.35,1.05-0.52,1.51-0.52
		c0.09-6.11,0.55-9.86,1.37-11.26c0.73-1.57,2.06-2.36,3.98-2.36c0.73,0,1.19-0.09,1.37-0.26c0.36-0.17,0.55-0.7,0.55-1.57
		C146.31,44.55,147.09,45.51,148.01,46.91z M134.55,65.76c1.56,2.97,2.84,4.71,3.84,5.24c0-2.09-0.05-4.45-0.14-7.07l-1.37,0.26
		C135.79,64.36,135.01,64.89,134.55,65.76z M136.47,35.91c0.36-0.17,0.82-0.7,1.37-1.57c-0.09-0.52-0.23-1.48-0.41-2.88
		C136.98,33.38,136.66,34.86,136.47,35.91z"/>
	<path class="st0" d="M171.08,33.55c1.01,1.22,1.46,2.19,1.37,2.88c-0.18,0.18-0.82,0.79-1.92,1.83
		c-4.12,4.89-6.18,11.17-6.18,18.85c0,2.27,0.23,4.28,0.69,6.02c0.46,2.62,1.56,5.33,3.3,8.12c0.18,0.7,0.32,1.4,0.41,2.1
		c0.09,0.7,0.05,1.22-0.14,1.57c-0.27,0.52-0.55,0.88-0.82,1.05c-1.28-0.35-2.56-2.18-3.84-5.5c-1.37-4.19-2.11-8.64-2.2-13.35
		c0-4.01,0.5-7.77,1.51-11.26c0.64-2.09,1.24-3.75,1.79-4.98l-2.47,1.57c-2.75,1.57-4.85,2.36-6.32,2.36
		c-1.01-0.35-1.51-1.48-1.51-3.4c0-1.4,0.36-2.53,1.1-3.4c0.18-0.35,0.32-0.09,0.41,0.79c0.09,0.88,0.55,1.22,1.37,1.05
		c2.47-0.87,4.26-1.66,5.36-2.36c2.01-0.87,3.71-1.74,5.08-2.62c0.64-0.87,1.19-1.4,1.65-1.57
		C170.16,33.29,170.62,33.38,171.08,33.55z M176.98,30.41c0,0.88-0.05,1.57-0.14,2.09c-0.27,1.05-0.73,1.22-1.37,0.52
		c-1.37-1.4-2.43-3.05-3.16-4.98c-0.09-0.35-0.09-0.52,0-0.52C174.97,28.05,176.52,29.01,176.98,30.41z M178.49,23.86
		c0.91,1.05,1.28,2.01,1.1,2.88c-0.27,0.52-0.64,0.79-1.1,0.79c-1.01,0.35-2.2-0.7-3.57-3.14c-0.27-0.52-0.18-0.79,0.27-0.79
		l1.51-0.26L178.49,23.86z"/>
	<path class="st0" d="M194.83,37.74l-1.65,4.19c-0.92,2.79-1.83,5.07-2.75,6.81c-0.64,1.22-1.19,2.27-1.65,3.14
		c1.46,0.7,2.15,3.4,2.06,8.12c-0.09,2.62-0.27,5.41-0.55,8.38l0.14,0.26c0.64-1.4,1.19-3.05,1.65-4.98
		c0.27-0.7,0.41-0.61,0.41,0.26c-0.55,5.76-1.51,10.04-2.88,12.83c-0.37,0.35-0.69,0.35-0.96,0c-0.82-1.05-1.42-3.14-1.79-6.28
		c0.36-3.14,0.64-5.24,0.82-6.28c0.18-1.22,0.27-3.4,0.27-6.55c0-1.22-0.18-2.18-0.55-2.88c-0.64,0.88-1.47,1.48-2.47,1.83
		c-0.64,0.18-1.15-0.26-1.51-1.31c-0.37-1.05-0.41-1.74-0.14-2.09c2.2-4.19,3.62-6.98,4.26-8.38c1.01-2.44,1.97-5.06,2.88-7.86
		c-0.27-1.05-0.69-2.1-1.24-3.14c-0.09-0.52-0.09-0.79,0-0.79c0.46,0,0.91-0.09,1.37-0.26c0.55-0.17,0.96-0.17,1.24,0
		C193.55,34.51,194.56,36.17,194.83,37.74z M202.8,27.79c0.82,0.88,1.14,1.92,0.96,3.14c0,1.75-0.32,3.23-0.96,4.45
		c-0.37,1.05-0.82,1.92-1.37,2.62c1.19,0.18,2.38-0.61,3.57-2.36c0.46-0.7,1.42-0.52,2.88,0.52c1.65,1.05,1.74,2.36,0.27,3.93
		c-2.38,0.88-4.17,2.62-5.36,5.24c-0.55,2.27-0.82,7.68-0.82,16.23c0.09,6.64,0.14,11.61,0.14,14.93c0,0.7-0.05,1.66-0.14,2.88
		c0,1.22-0.27,1.92-0.82,2.09c-0.46,0.17-0.73,0.17-0.82,0c-1.37-2.27-2.01-4.63-1.92-7.07c0.64-11.35,1.05-19.2,1.24-23.57
		c0.18-1.57,0.32-3.31,0.41-5.24l0.14-1.83c-0.92,0.52-1.69,0.96-2.33,1.31c-0.82,0-1.24-1.4-1.24-4.19c0-1.05,0.09-1.83,0.27-2.36
		c0.18-0.52,0.41-0.87,0.69-1.05c0.64-1.05,1.28-2.27,1.92-3.67c0.18-0.7,0.36-1.31,0.55-1.83c-0.18-0.7-0.37-1.13-0.55-1.31
		c-1.1-0.87-1.92-1.05-2.47-0.52c-0.46,0-0.41-0.61,0.14-1.83c0.46-0.87,1.05-1.4,1.79-1.57c0.46-0.17,0.91-0.35,1.37-0.52
		C201.24,26.57,202.06,27.1,202.8,27.79z M202.93,58.69c1.19,0,2.65,0.26,4.39,0.79c1.65,0.35,2.97,1.83,3.98,4.45
		c0.18,1.57-0.14,2.97-0.96,4.19c-1.83-0.52-3.57-1.83-5.22-3.93c-1.74-2.27-2.61-3.84-2.61-4.71l-0.27-1.31l0.41-0.52l0.41-0.26
		l-0.14,0.79V58.69z M208.43,47.17c0.73,0.35,1.1,1.05,1.1,2.09c0,1.22-1.51,3.23-4.53,6.02c-0.55,0.35-0.92,0.35-1.1,0
		c0.55-1.4,0.87-2.44,0.96-3.14c0-1.22-0.27-1.31-0.82-0.26c-0.18,0.52-0.46,0.44-0.82-0.26c1.1-3.31,2.06-4.98,2.88-4.98
		C206.73,46.64,207.51,46.82,208.43,47.17z"/>
	<path class="st0" d="M230.95,30.41c0.73,0.7,1.37,1.66,1.92,2.88c0.27,2.45-2.47,8.99-8.24,19.64c1.19-0.87,2.29-1.48,3.3-1.83
		c0.64-0.17,1.51-0.26,2.61-0.26s2.06,0.35,2.88,1.05c0.82,0.7,1.83,2.27,3.02,4.71c0.46,1.05,0.69,2.27,0.69,3.67
		c0.09,3.67-1.6,7.51-5.08,11.52c-2.75,2.27-4.9,3.49-6.45,3.67c-1.1,0.18-1.83-0.52-2.2-2.09c-0.37-0.87-0.87-1.92-1.51-3.14
		c-0.09-1.05-0.18-1.92-0.27-2.62c0.27-1.22,0.64-2,1.1-2.36c0.82-1.05,1.74-1.48,2.75-1.31c0.73,0,1.37,0.09,1.92,0.26
		c0.73,0.18,1.51,0.7,2.33,1.57c0.36,0.35,0.69,0.7,0.96,1.05c2.29-2.97,3.48-5.5,3.57-7.59c0-1.4-0.37-2.79-1.1-4.19
		c-0.73-1.4-1.37-2.18-1.92-2.36c-1.01,0.35-2.11,0.96-3.3,1.83c-4.3,2.97-7,5.24-8.1,6.81c-1.19,1.92-1.83,1.05-1.92-2.62
		c0.09-1.22,0.55-2.18,1.37-2.88c2.2-3.14,4.48-7.24,6.87-12.31c2.2-4.89,3.39-7.94,3.57-9.17l-0.14-0.52l-1.1,0.79
		c-1.65,1.57-2.84,2.45-3.57,2.62c-0.73,0-1.65-1.13-2.75-3.4l-0.69-1.31c-0.27-0.52-0.18-0.87,0.27-1.05
		c0.64,0.7,1.46,1.22,2.47,1.57c1.01-0.35,2.7-1.22,5.08-2.62C229.85,30.06,230.4,30.06,230.95,30.41z M224.91,69.16
		c0.27,0.7,0.69,1.22,1.24,1.57c0.82-0.52,1.46-1.13,1.92-1.83c-0.46-0.87-1.19-1.4-2.2-1.57c-0.37,0-0.64,0.18-0.82,0.52
		C224.58,68.03,224.54,68.47,224.91,69.16z"/>
</g>
<g>
	<path class="st4" d="M78.53,34.07c1.19,2.09,1.79,3.76,1.79,4.98c0,1.4-0.64,4.02-1.92,7.86c-1.65,4.71-3.02,8.03-4.12,9.95
		c1.28,0.18,2.61,0.52,3.98,1.05c0.73,0.35,1.74,0.88,3.02,1.57c0.46-2.09,0.5-3.31,0.14-3.67c-0.18,0.18-0.32,0.44-0.41,0.79
		c-0.55-0.87-0.64-1.66-0.27-2.36c0.55-1.05,1.42-0.79,2.61,0.79c0.73,1.4,1.01,3.23,0.82,5.5l1.51,1.31
		c1.28,1.05,2.1,2.27,2.47,3.67c0.27,1.05,0.14,1.66-0.41,1.83c-0.82-0.35-2.29-1.22-4.39-2.62c-1.47,2.97-2.93,5.15-4.39,6.55
		c-1.47,1.4-3.11,2.79-4.94,4.19c0.73-1.05,1.74-2.7,3.02-4.98c1.28-2.27,2.38-4.8,3.3-7.59c-1.47-1.05-2.61-1.66-3.43-1.83
		c-1.56-0.52-2.98-0.79-4.26-0.79l-3.71,6.81c-1.01,1.57-1.83,2.53-2.47,2.88c-0.46,0.52-0.92,0.79-1.37,0.79
		c-0.55,0-1.1-1.57-1.65-4.71c-1.01-1.57-1.47-2.88-1.37-3.93c0.18-1.4,0.73-2.44,1.65-3.14c1.19-0.87,2.65-1.48,4.39-1.83
		c1.1-0.17,2.1-0.26,3.02-0.26c0.82-1.74,1.6-3.49,2.33-5.24c2.93-6.98,4.35-11.96,4.26-14.93c0-1.05-0.27-1.57-0.82-1.57
		c-1.37,1.4-2.52,2.27-3.43,2.62c-1.19,0.35-2.11-0.17-2.75-1.57c-0.64-1.22-1.05-2.18-1.24-2.88c1.01,0.7,1.92,0.96,2.75,0.79
		c1.28-0.35,2.65-0.79,4.12-1.31C77.07,32.76,77.8,33.2,78.53,34.07z M64.53,61.57c-0.46,0.35-0.73,0.79-0.82,1.31
		c0.27,1.4,0.87,2.45,1.79,3.14c1.1-0.87,2.29-2.62,3.57-5.24c-0.55-0.17-1.33-0.17-2.33,0C65.99,60.96,65.26,61.22,64.53,61.57z"/>
	<path class="st4" d="M111.63,30.15c0.27,0.35,0.59,0.88,0.96,1.57c0,0.7-0.09,1.22-0.27,1.57c-5.77,10.47-9.11,17.54-10.02,21.21
		c0.73-1.4,1.65-2.88,2.75-4.45c0.64-0.87,1.24-1.13,1.78-0.79c1.19,0.52,1.88,3.06,2.06,7.59c0.18,7.33,0.96,11.61,2.33,12.83
		c1.01,0.7,1.97,1.05,2.88,1.05c1.01-0.17,2.01-0.87,3.02-2.09c1.28-1.57,2.7-3.67,4.26-6.28c-0.09,0.7-0.41,1.66-0.96,2.88
		c-1.1,2.62-2.33,4.8-3.71,6.55c-1.01,1.4-2.33,2.19-3.98,2.36c-1.65,0-3.02-1.05-4.12-3.14c-1.47-2.97-2.2-6.37-2.2-10.21
		c-0.09-4.54-0.14-7.42-0.14-8.64c-0.27-1.4-0.6-1.48-0.96-0.26c-1.1,2.97-1.92,4.89-2.47,5.76c-2.2,3.49-4.17,7.07-5.9,10.74
		c-0.55,1.57-1.01,2.97-1.37,4.19c-0.46,0.35-0.78,0.18-0.96-0.52c-0.46-1.57-0.64-3.05-0.55-4.45c0.09-1.05,0.64-2.09,1.65-3.14
		c1.1-2.62,2.47-6.19,4.12-10.74c1.74-4.36,3.39-8.29,4.94-11.78c1.83-4.19,3.34-7.5,4.53-9.95c0.18-0.87,0.09-1.48-0.27-1.83
		c0.36-0.7,0.78-0.87,1.24-0.52C110.8,29.62,111.26,29.8,111.63,30.15z"/>
	<path class="st4" d="M139.36,25.17c0.18,1.22,0.14,2.62-0.14,4.19c0.36,1.57,1.1,2.88,2.2,3.93c0.55,0.52,0.82,1.22,0.82,2.09
		c0,1.22-1.37,3.06-4.12,5.5c-0.55,0.35-1.15,0.7-1.79,1.05c-3.94,9.6-6.55,15.19-7.83,16.76c-0.92-0.52-1.37-1.74-1.37-3.67
		l0.14-0.79c0.91-1.92,1.74-3.67,2.47-5.24c1.01-2.09,2.1-4.71,3.3-7.86c-0.92-0.7-2.01-1.92-3.3-3.67
		c0.27-0.17,0.69-0.35,1.24-0.52c0.36,0,0.87,0.26,1.51,0.79c0.55,0.35,1.1,0.35,1.65,0c1.01-2.44,1.69-4.71,2.06-6.81
		c0.73-2.44,1.01-4.28,0.82-5.5c-0.09-0.52-0.32-0.96-0.69-1.31c0.27-0.7,0.64-1.05,1.1-1.05
		C137.99,23.25,138.63,23.95,139.36,25.17z M149.53,46.64c0.73,1.22,1.01,2.45,0.82,3.67c-0.09,0.88-0.5,1.49-1.24,1.83
		c-0.55,0-1.05-0.09-1.51-0.26c-0.82-0.35-1.6-1.31-2.33-2.88c-0.55-1.4-1.24-1.83-2.06-1.31c-0.46,0.18-0.78,1.66-0.96,4.45
		c-0.09,1.22-0.14,3.4-0.14,6.55c0.36,0,0.78,0.09,1.24,0.26c1.28,0.52,2.42,1.31,3.43,2.36c1.19,1.57,1.6,2.88,1.24,3.93
		c-1.47,0.52-2.84,0.96-4.12,1.31v-0.26c0.46-0.7,0.87-1.31,1.24-1.83c-0.27-0.52-1.28-0.79-3.02-0.79c0,1.22,0.04,2.53,0.14,3.93
		c0.09,1.4,0.14,2.88,0.14,4.45c0,2.09-0.05,3.76-0.14,4.98c0,1.4-0.41,1.92-1.24,1.57l-1.65-0.52c-1.92-1.75-3.3-4.01-4.12-6.81
		c-0.92-2.97-1.33-5.06-1.24-6.28c0.18-1.05,0.55-1.92,1.1-2.62c1.01-1.22,2.1-2.09,3.3-2.62c0.55-0.35,1.05-0.52,1.51-0.52
		c0.09-6.11,0.55-9.86,1.37-11.26c0.73-1.57,2.06-2.36,3.98-2.36c0.73,0,1.19-0.09,1.37-0.26c0.36-0.17,0.55-0.7,0.55-1.57
		C147.83,44.29,148.61,45.25,149.53,46.64z M136.07,65.5c1.56,2.97,2.84,4.71,3.84,5.24c0-2.09-0.05-4.45-0.14-7.07l-1.37,0.26
		C137.3,64.1,136.53,64.63,136.07,65.5z M137.99,35.65c0.36-0.17,0.82-0.7,1.37-1.57c-0.09-0.52-0.23-1.48-0.41-2.88
		C138.49,33.12,138.17,34.6,137.99,35.65z"/>
	<path class="st4" d="M172.59,33.29c1.01,1.22,1.46,2.19,1.37,2.88c-0.18,0.18-0.82,0.79-1.92,1.83
		c-4.12,4.89-6.18,11.17-6.18,18.85c0,2.27,0.23,4.28,0.69,6.02c0.46,2.62,1.56,5.33,3.3,8.12c0.18,0.7,0.32,1.4,0.41,2.1
		c0.09,0.7,0.05,1.22-0.14,1.57c-0.27,0.52-0.55,0.88-0.82,1.05c-1.28-0.35-2.56-2.18-3.84-5.5c-1.37-4.19-2.11-8.64-2.2-13.35
		c0-4.01,0.5-7.77,1.51-11.26c0.64-2.09,1.24-3.75,1.79-4.98l-2.47,1.57c-2.75,1.57-4.85,2.36-6.32,2.36
		c-1.01-0.35-1.51-1.48-1.51-3.4c0-1.4,0.36-2.53,1.1-3.4c0.18-0.35,0.32-0.09,0.41,0.79c0.09,0.88,0.55,1.22,1.37,1.05
		c2.47-0.87,4.26-1.66,5.36-2.36c2.01-0.87,3.71-1.74,5.08-2.62c0.64-0.87,1.19-1.4,1.65-1.57
		C171.68,33.03,172.14,33.12,172.59,33.29z M178.5,30.15c0,0.88-0.05,1.57-0.14,2.09c-0.27,1.05-0.73,1.22-1.37,0.52
		c-1.37-1.4-2.43-3.05-3.16-4.98c-0.09-0.35-0.09-0.52,0-0.52C176.48,27.79,178.04,28.75,178.5,30.15z M180.01,23.6
		c0.91,1.05,1.28,2.01,1.1,2.88c-0.27,0.52-0.64,0.79-1.1,0.79c-1.01,0.35-2.2-0.7-3.57-3.14c-0.27-0.52-0.18-0.79,0.27-0.79
		l1.51-0.26L180.01,23.6z"/>
	<path class="st4" d="M196.35,37.48l-1.65,4.19c-0.92,2.79-1.83,5.07-2.75,6.81c-0.64,1.22-1.19,2.27-1.65,3.14
		c1.46,0.7,2.15,3.4,2.06,8.12c-0.09,2.62-0.27,5.41-0.55,8.38l0.14,0.26c0.64-1.4,1.19-3.05,1.65-4.98
		c0.27-0.7,0.41-0.61,0.41,0.26c-0.55,5.76-1.51,10.04-2.88,12.83c-0.37,0.35-0.69,0.35-0.96,0c-0.82-1.05-1.42-3.14-1.79-6.28
		c0.36-3.14,0.64-5.24,0.82-6.28c0.18-1.22,0.27-3.4,0.27-6.55c0-1.22-0.18-2.18-0.55-2.88c-0.64,0.88-1.47,1.48-2.47,1.83
		c-0.64,0.18-1.15-0.26-1.51-1.31c-0.37-1.05-0.41-1.74-0.14-2.09c2.2-4.19,3.62-6.98,4.26-8.38c1.01-2.44,1.97-5.06,2.88-7.86
		c-0.27-1.05-0.69-2.1-1.24-3.14c-0.09-0.52-0.09-0.79,0-0.79c0.46,0,0.91-0.09,1.37-0.26c0.55-0.17,0.96-0.17,1.24,0
		C195.07,34.25,196.08,35.91,196.35,37.48z M204.31,27.53c0.82,0.88,1.14,1.92,0.96,3.14c0,1.75-0.32,3.23-0.96,4.45
		c-0.37,1.05-0.82,1.92-1.37,2.62c1.19,0.18,2.38-0.61,3.57-2.36c0.46-0.7,1.42-0.52,2.88,0.52c1.65,1.05,1.74,2.36,0.27,3.93
		c-2.38,0.88-4.17,2.62-5.36,5.24c-0.55,2.27-0.82,7.68-0.82,16.23c0.09,6.64,0.14,11.61,0.14,14.93c0,0.7-0.05,1.66-0.14,2.88
		c0,1.22-0.27,1.92-0.82,2.09c-0.46,0.17-0.73,0.17-0.82,0c-1.37-2.27-2.01-4.63-1.92-7.07c0.64-11.35,1.05-19.2,1.24-23.57
		c0.18-1.57,0.32-3.31,0.41-5.24l0.14-1.83c-0.92,0.52-1.69,0.96-2.33,1.31c-0.82,0-1.24-1.4-1.24-4.19c0-1.05,0.09-1.83,0.27-2.36
		c0.18-0.52,0.41-0.87,0.69-1.05c0.64-1.05,1.28-2.27,1.92-3.67c0.18-0.7,0.36-1.31,0.55-1.83c-0.18-0.7-0.37-1.13-0.55-1.31
		c-1.1-0.87-1.92-1.05-2.47-0.52c-0.46,0-0.41-0.61,0.14-1.83c0.46-0.87,1.05-1.4,1.79-1.57c0.46-0.17,0.91-0.35,1.37-0.52
		C202.76,26.31,203.58,26.83,204.31,27.53z M204.45,58.43c1.19,0,2.65,0.26,4.39,0.79c1.65,0.35,2.97,1.83,3.98,4.45
		c0.18,1.57-0.14,2.97-0.96,4.19c-1.83-0.52-3.57-1.83-5.22-3.93c-1.74-2.27-2.61-3.84-2.61-4.71l-0.27-1.31l0.41-0.52l0.41-0.26
		l-0.14,0.79V58.43z M209.94,46.9c0.73,0.35,1.1,1.05,1.1,2.09c0,1.22-1.51,3.23-4.53,6.02c-0.55,0.35-0.92,0.35-1.1,0
		c0.55-1.4,0.87-2.44,0.96-3.14c0-1.22-0.27-1.31-0.82-0.26c-0.18,0.52-0.46,0.44-0.82-0.26c1.1-3.31,2.06-4.98,2.88-4.98
		C208.25,46.38,209.03,46.56,209.94,46.9z"/>
	<path class="st4" d="M232.46,30.15c0.73,0.7,1.37,1.66,1.92,2.88c0.27,2.45-2.47,8.99-8.24,19.64c1.19-0.87,2.29-1.48,3.3-1.83
		c0.64-0.17,1.51-0.26,2.61-0.26s2.06,0.35,2.88,1.05c0.82,0.7,1.83,2.27,3.02,4.71c0.46,1.05,0.69,2.27,0.69,3.67
		c0.09,3.67-1.6,7.51-5.08,11.52c-2.75,2.27-4.9,3.49-6.45,3.67c-1.1,0.18-1.83-0.52-2.2-2.09c-0.37-0.87-0.87-1.92-1.51-3.14
		c-0.09-1.05-0.18-1.92-0.27-2.62c0.27-1.22,0.64-2,1.1-2.36c0.82-1.05,1.74-1.48,2.75-1.31c0.73,0,1.37,0.09,1.92,0.26
		c0.73,0.18,1.51,0.7,2.33,1.57c0.36,0.35,0.69,0.7,0.96,1.05c2.29-2.97,3.48-5.5,3.57-7.59c0-1.4-0.37-2.79-1.1-4.19
		c-0.73-1.4-1.37-2.18-1.92-2.36c-1.01,0.35-2.11,0.96-3.3,1.83c-4.3,2.97-7,5.24-8.1,6.81c-1.19,1.92-1.83,1.05-1.92-2.62
		c0.09-1.22,0.55-2.18,1.37-2.88c2.2-3.14,4.48-7.24,6.87-12.31c2.2-4.89,3.39-7.94,3.57-9.17l-0.14-0.52l-1.1,0.79
		c-1.65,1.57-2.84,2.45-3.57,2.62c-0.73,0-1.65-1.13-2.75-3.4l-0.69-1.31c-0.27-0.52-0.18-0.87,0.27-1.05
		c0.64,0.7,1.46,1.22,2.47,1.57c1.01-0.35,2.7-1.22,5.08-2.62C231.37,29.8,231.91,29.8,232.46,30.15z M226.42,68.9
		c0.27,0.7,0.69,1.22,1.24,1.57c0.82-0.52,1.46-1.13,1.92-1.83c-0.46-0.87-1.19-1.4-2.2-1.57c-0.37,0-0.64,0.18-0.82,0.52
		C226.1,67.77,226.06,68.21,226.42,68.9z"/>
</g>
<g>
	<g>
		<path d="M210.69,88.71c-0.56-0.09-1.1-0.22-1.64-0.38c0.09,0.03,0.18,0.05,0.26,0.08c-0.66-0.21-1.3-0.47-1.92-0.78
			c-0.27-0.14-0.67-0.13-0.95-0.09c-0.36,0.05-0.79,0.17-1.1,0.37c-0.21,0.13-0.51,0.33-0.55,0.6c-0.03,0.24,0.08,0.39,0.29,0.5
			c1.2,0.61,2.5,1.03,3.83,1.25c0.36,0.06,0.73,0.03,1.08-0.07c0.32-0.09,0.72-0.25,0.97-0.48c0.15-0.14,0.38-0.38,0.29-0.61
			C211.16,88.86,210.92,88.75,210.69,88.71L210.69,88.71z"/>
	</g>
</g>
<g>
	<g>
		<path class="st3" d="M205.5,87.75c-0.77,0.08-0.61-0.08-0.32,0.06c0.1,0.05,0.19,0.12,0.28,0.18c0.22,0.15,0.43,0.31,0.66,0.44
			c0.54,0.31,1.12,0.46,1.73,0.57c0.54,0.1,1.09,0.15,1.63,0.26c0.54,0.11,1.1,0.28,1.63,0.47c0.62,0.22,1.49-0.01,2.04-0.32
			c0.35-0.2,0.91-0.66,0.31-0.93c-0.68-0.31-1.38-0.58-2.1-0.81c-0.38-0.12-0.78-0.22-1.18-0.28c-0.25-0.04-0.5-0.05-0.76-0.05
			c-0.08,0-0.17,0-0.25,0c-0.03,0-0.33,0-0.21,0c0.09,0-0.13-0.01-0.15-0.02c-0.18-0.03,0.07,0.03-0.1-0.02
			c-0.18-0.05-0.35-0.13-0.51-0.21c-0.35-0.16-0.68-0.3-1.06-0.37c-0.99-0.19-2.33,0.09-3.09,0.76c-0.13,0.12-0.37,0.31-0.31,0.52
			c0.05,0.2,0.37,0.28,0.53,0.3c0.63,0.07,1.56-0.11,2.05-0.55c0.33-0.27,0.04-0.18-0.87,0.29c-0.1,0.02-0.19,0.03-0.29,0.02
			c0.11,0.02,0.13,0.02,0.07,0.01c-0.06-0.01-0.04,0,0.06,0.03c0.26,0.13,0.53,0.24,0.79,0.35c0.64,0.27,1.29,0.28,1.97,0.29
			c0.09,0,0.08,0-0.01,0c0.08,0.01,0.17,0.01,0.25,0.02c0.04,0.01,0.22,0.04,0.24,0.04c0.29,0.06,0.57,0.16,0.85,0.26
			c0.59,0.2,1.16,0.43,1.73,0.69c0.78-0.42,1.56-0.84,2.35-1.26c-0.66-0.24-1.33-0.42-2.01-0.56c-0.62-0.13-1.26-0.17-1.87-0.3
			c-0.43-0.09-0.93-0.34-1.35-0.64c-0.25-0.18-0.51-0.35-0.79-0.46c-0.47-0.17-0.96-0.15-1.45-0.09c-0.36,0.04-0.78,0.18-1.1,0.36
			c-0.18,0.1-0.51,0.3-0.57,0.52C204.13,87.89,205.25,87.78,205.5,87.75L205.5,87.75z"/>
	</g>
</g>
<g>
</g>
<g>
</g>
<g>
</g>
<g>
</g>
<g>
</g>
<g>
</g>
</svg>
