<?xml version="1.0" encoding="utf-8"?>
<!-- Generator: Adobe Illustrator 24.0.0, SVG Export Plug-In . SVG Version: 6.00 Build 0)  -->
<svg version="1.1" id="レイヤー_1" xmlns="http://www.w3.org/2000/svg" xmlns:xlink="http://www.w3.org/1999/xlink" x="0px"
	 y="0px" viewBox="0 0 300 300" style="enable-background:new 0 0 300 300;" xml:space="preserve">
<style type="text/css">
	.st0{enable-background:new    ;}
	.st1{clip-path:url(#SVGID_2_);enable-background:new    ;}
	.st2{fill:#C3B600;}
	.st3{fill:#BFB200;}
	.st4{fill:#BBAE00;}
	.st5{fill:#B7AA00;}
	.st6{fill:#B2A600;}
	.st7{fill:#AEA200;}
	.st8{fill:#AA9E00;}
	.st9{fill:#A59A00;}
	.st10{fill:#C7BA00;}
	.st11{fill:#CBBE00;}
	.st12{fill:#CFC100;}
	.st13{fill:#D4C500;}
	.st14{fill:#D8C900;}
	.st15{fill:#DCCD00;}
	.st16{fill:#DFD000;}
	.st17{fill:#E3D400;}
	.st18{fill:#E7D700;}
	.st19{fill:#EBDB00;}
	.st20{fill:#EFDE00;}
	.st21{fill:#F3E100;}
	.st22{fill:#F6E500;}
	.st23{fill:#FAE800;}
	.st24{fill:#FEEB00;}
	.st25{fill:#FFEE00;}
	.st26{fill:#FFF100;}
	.st27{fill:#FFF209;}
	.st28{fill:#FFF231;}
	.st29{fill:#FFF342;}
	.st30{fill:#FFF34E;}
	.st31{fill:#FFF458;}
	.st32{fill:#FFF460;}
	.st33{fill:#FFF467;}
	.st34{fill:#FFF56E;}
	.st35{fill:#FFF574;}
	.st36{fill:#FFF579;}
	.st37{fill:#FFF67E;}
	.st38{fill:#FFF683;}
	.st39{fill:#FFF688;}
	.st40{fill:#FFF78C;}
	.st41{fill:#FFF790;}
	.st42{fill:#FFF794;}
	.st43{fill:#FFF798;}
	.st44{fill:#FFF89B;}
	.st45{fill:#FFF89E;}
	.st46{clip-path:url(#SVGID_4_);enable-background:new    ;}
</style>
<g>
	<g>
		<g class="st0">
			<g class="st0">
				<defs>
					<path id="SVGID_1_" class="st0" d="M-0.05,149.76c-0.07-4.01,0.09-9.37,0.61-13.34c0.47-3.59,0.94-8.4,1.56-11.96
						c0.68-3.86,1.78-8.98,2.78-12.78c0.9-3.41,2.27-7.92,3.45-11.25c1.31-3.68,3.37-8.47,4.84-12.09
						c1.51-3.72,4.01-8.48,6.05-11.94c3.46-5.85,8.55-13.35,12.58-18.82c2.47-3.35,6.09-7.57,9.04-10.5
						c2.33-2.31,5.33-5.49,7.78-7.67c3.44-3.06,8.18-6.95,11.81-9.77c2.41-1.87,5.8-4.15,8.37-5.8c2.56-1.65,6.09-3.68,8.72-5.21
						c4.46-2.59,10.7-5.58,15.51-7.45c3.13-1.22,7.33-2.81,10.53-3.85c3.26-1.05,7.67-2.26,10.99-3.11
						c3.11-0.79,7.32-1.62,10.48-2.18c3.3-0.58,6-0.9,8.87-1.23c1.05-0.12,5.09-0.5,7.26-0.61c2.87-0.14,5.59-0.28,9.95-0.25
						c9.96,0.06,17.79,1.18,20.73,1.6c3.33,0.48,7.19,1.22,8.98,1.6c3.05,0.65,7.08,1.68,10.1,2.49c2.26,0.61,5.23,1.54,7.43,2.32
						c3.1,1.1,7.21,2.65,10.24,3.92c4.74,1.99,10.81,5.19,15.36,7.6c36.63,20.81,60.77,61.94,60.68,112.39
						c-0.15,79.58-60.57,152.2-134.94,162.2c74.38-10,134.79-82.63,134.94-162.2c0.09-50.44-24.05-91.58-60.68-112.39
						c3.56,2.08,8.31,4.86,11.61,7.32c2.49,1.85,5.87,4.22,8.27,6.18c3.02,2.47,7.06,5.77,9.78,8.56c2.31,2.37,5.5,5.45,7.7,7.92
						c2.57,2.87,5.87,6.82,8.2,9.89c2.06,2.71,4.68,6.42,6.52,9.29c2.06,3.22,4.7,7.58,6.46,10.98c2.38,4.6,5.97,11.56,9.64,22.33
						c2.29,6.73,4.41,16,5.77,22.97c0.76,3.87,1.29,9.12,1.61,13.05c0.3,3.67,0.35,8.58,0.47,12.25c0.15,4.47-0.22,10.46-0.76,14.9
						c-0.43,3.59-1.02,8.37-1.69,11.92c-0.72,3.85-1.87,8.96-2.91,12.74c-0.93,3.4-2.35,7.89-3.56,11.2
						c-1.35,3.67-3.45,8.44-4.96,12.04c-1.34,3.18-3.54,7.25-5.25,10.25c-1.97,3.46-4.87,7.9-6.99,11.26
						c-2.28,3.6-5.82,8.06-8.55,11.32c-4.22,5.02-10.24,11.43-15.17,15.75c-3.49,3.06-8.32,6.93-12.03,9.73
						c-2.42,1.83-5.83,4.02-8.37,5.67c-1.35,0.88-9.79,6.02-16.88,9.17c-3.36,1.49-7.86,3.41-11.31,4.68
						c-3.23,1.19-7.61,2.58-10.93,3.52c-6.57,1.85-12.21,2.95-15.79,3.56c-7.99,1.35-14.34,1.74-16.1,1.83
						c-3.04,0.15-4.72,0.24-6.69,0.24c-0.98,0-2.28,0.02-3.25,0.01c-0.97-0.01-2.27-0.04-3.25-0.06c-0.98-0.02-2.29-0.08-3.27-0.13
						c-3.64-0.21-9.74-0.57-18.51-2.1c-16.36-2.86-28.47-7.97-32.45-9.64c-4.74-2-10.87-5.08-15.36-7.6
						c-4.12-2.31-9.5-5.63-13.27-8.48c-3.17-2.41-7.52-5.5-10.45-8.19c-2.4-2.21-5.7-5.07-8.01-7.39c-2.73-2.75-6.25-6.54-8.77-9.48
						c-4.41-5.14-9.53-12.62-13.28-18.27c-2.14-3.23-4.53-7.82-6.3-11.26c-1.75-3.4-3.95-8.02-5.25-11.62
						c-2.39-6.64-5.38-15.58-7-22.44c-1.49-6.3-2.53-14.91-3.25-21.34C0.02,158.35,0.01,153.43-0.05,149.76z"/>
				</defs>
				<clipPath id="SVGID_2_">
					<use xlink:href="#SVGID_1_"  style="overflow:visible;"/>
				</clipPath>
				<g class="st1">
					<path class="st2" d="M-0.05,149.76c0.12,7.58,0.42,25.31,6.79,45.01c6.98,21.58,14.51,32.64,21.79,43.33
						c6.97,10.23,19.84,22.86,26.07,27.69c12.25,9.47,21.7,16.26,40.65,23.92c25.97,10.5,57.64,13.22,84.72,7.29
						c11.49-2.52,46.46-10.17,78.03-42.92c11.38-11.8,18.63-23.31,21.94-29.11c8.21-14.4,10.8-22.65,14.71-35.14
						c2.25-7.18,3.52-17.21,4.59-24.66c0.52-3.63,0.53-8.54,0.73-12.19c0.17-3.07,0.31-11.84-1.88-26.96
						c-3.23-22.29-13.69-45.35-22.04-57.34c-5.91-8.5-12.03-17.28-22.42-27.09c-11.59-10.93-21.1-17.07-29.67-22.07
						c36.63,20.81,60.77,61.94,60.68,112.39c-0.15,79.58-60.57,152.2-134.94,162.2c74.38-10,134.79-82.63,134.94-162.2
						c0.09-50.44-24.05-91.58-60.68-112.39c-14.69-7.79-21.47-10.73-38.15-15.2c-1.61-0.43-16.28-4.23-34.69-4.34
						c-38.1-0.23-65.96,14.23-73.59,18.67C58.25,29.85,51.34,36.7,40.87,47.07c-4.71,4.67-12.29,13.54-21.62,29.32
						C7.13,96.87-0.44,125.66-0.05,149.76"/>
					<path class="st2" d="M284.65,131.89c-0.15,79.58-60.57,152.2-134.94,162.2c-0.15,0-0.34,0-0.49,0
						C18.83,300.62-30.83,159.72,26.96,93.68C89.93,21.72,223,81.76,230.36,185.47c5.65,79.57-52.64,99.19-80.65,108.63
						C224.09,284.09,284.51,211.47,284.65,131.89c0.09-50.44-24.05-91.58-60.68-112.39c-2.3-1.22-5.37-2.85-7.67-4.07
						c-3.46-1.59-8.08-3.69-11.6-5.13l-6.33-2.32c-2.23-0.71-5.19-1.68-7.43-2.32l-5.12-1.36c-1.61-0.37-3.76-0.88-5.38-1.22
						l-4.28-0.82c-1.29-0.21-3.01-0.51-4.3-0.7l-3.73-0.5c-1.11-0.12-2.59-0.3-3.7-0.4l-3.41-0.29c-1.01-0.06-2.37-0.16-3.38-0.21
						l-3.26-0.13c-0.98-0.02-2.28-0.05-3.25-0.06l-3.25,0.01c-0.99,0.02-2.3,0.05-3.29,0.08l-3.41,0.16
						c-1.05,0.07-2.45,0.16-3.5,0.25l-3.76,0.36c-1.19,0.14-2.77,0.32-3.95,0.48l-4.92,0.75c-14.26,2.69-21.11,4.9-32,9.13
						l-7.76,3.46c-10.05,5.18-10.65,5.49-16.46,9.2l-8.37,5.8c-3.59,2.87-8.37,6.72-11.81,9.77l-7.78,7.67
						c-2.74,3.12-6.44,7.25-9.04,10.5l-6.62,9.14c-2.08,3.38-4.94,7.84-6.87,11.31l-5.15,10.31c-1.47,3.62-3.53,8.41-4.84,12.09
						l-3.45,11.25c-0.85,3.83-2.1,8.92-2.78,12.78l-1.56,11.96c-0.2,4-0.59,9.33-0.61,13.34l0.47,12.25
						c0.77,6.43,2.01,14.99,3.25,21.34l3.07,11.42c1.3,3.64,2.91,8.53,4.36,12.11l4.81,10.54c1.87,3.39,4.28,7.96,6.3,11.26
						l6.32,9.42c2.45,3.11,5.64,7.32,8.22,10.32l7.51,8.02c3.07,2.84,7.14,6.66,10.34,9.35l8.11,6.23c3.93,2.62,9.2,6.07,13.27,8.48
						l7.67,4.07c3.46,1.59,8.08,3.69,11.6,5.13l6.33,2.32c2.23,0.71,5.19,1.68,7.43,2.32l5.12,1.36c1.61,0.37,3.76,0.88,5.38,1.22
						l4.28,0.82c1.29,0.21,3.01,0.51,4.3,0.7l3.73,0.5c1.11,0.12,2.59,0.3,3.7,0.4l3.41,0.29c1.01,0.06,2.37,0.16,3.38,0.21
						l3.26,0.13c0.98,0.02,2.28,0.05,3.25,0.06l3.25-0.01c0.99-0.02,2.3-0.05,3.29-0.08l3.41-0.16c1.05-0.07,2.45-0.16,3.5-0.25
						l3.76-0.36c1.19-0.14,2.77-0.32,3.95-0.48l4.88-0.74c11.13-2.1,18.15-3.81,30.36-8.46l7.67-3.3
						c9.86-4.91,10.66-5.31,16.88-9.17l8.37-5.67c3.66-2.86,8.52-6.69,12.03-9.73l7.84-7.56c2.79-3.11,6.55-7.22,9.19-10.45
						l6.7-9.05c2.12-3.36,5.02-7.8,6.99-11.26l5.25-10.25c1.51-3.61,3.62-8.38,4.96-12.04l3.56-11.2c0.89-3.82,2.19-8.89,2.91-12.74
						l1.69-11.92c0.27-4.47,0.71-10.43,0.76-14.9L299.54,138c-0.47-3.92-0.97-9.16-1.61-13.05l-2.44-11.66
						c-1.09-3.72-2.44-8.71-3.69-12.37l-4.24-10.86c-1.68-3.48-3.82-8.16-5.65-11.56l-5.84-9.83c-2.25-3.21-5.17-7.54-7.56-10.64
						l-7.16-8.53c-2.85-2.93-6.6-6.88-9.58-9.67l-7.91-6.8c-10.47-7.83-11.57-8.64-19.89-13.5
						C260.61,40.32,284.75,81.45,284.65,131.89"/>
					<path class="st3" d="M284.65,131.89c-0.12,66.03-41.74,127.27-98.4,151.93c-1.95,1.02-4.54,2.39-6.49,3.42
						C80.12,329.17-30.6,216.11,10.52,114.41c32.91-81.39,168.86-78.17,214.56,27.91c24.13,56.01,7.8,115.52-38.83,141.49
						C242.91,259.17,284.53,197.92,284.65,131.89c0.09-50.44-24.05-91.58-60.68-112.39c-2.3-1.22-5.37-2.85-7.67-4.07
						c-3.46-1.59-8.08-3.69-11.6-5.13l-6.33-2.32c-2.23-0.71-5.19-1.68-7.43-2.32l-5.12-1.36c-1.61-0.37-3.76-0.88-5.38-1.22
						l-4.28-0.82c-1.29-0.21-3.01-0.51-4.3-0.7l-3.73-0.5c-1.11-0.12-2.59-0.3-3.7-0.4l-3.41-0.29c-1.01-0.06-2.37-0.16-3.38-0.21
						l-3.26-0.13c-0.98-0.02-2.28-0.05-3.25-0.06l-3.25,0.01c-0.99,0.02-2.3,0.05-3.29,0.08l-3.41,0.16
						c-1.05,0.07-2.45,0.16-3.5,0.25l-3.76,0.36c-1.19,0.14-2.77,0.32-3.95,0.48l-4.92,0.75c-14.26,2.69-21.11,4.9-32,9.13
						l-7.76,3.46c-10.05,5.18-10.65,5.49-16.46,9.2l-8.37,5.8c-3.59,2.87-8.37,6.72-11.81,9.77l-7.78,7.67
						c-2.74,3.12-6.44,7.25-9.04,10.5l-6.62,9.14c-2.08,3.38-4.94,7.84-6.87,11.31l-5.15,10.31c-1.47,3.62-3.53,8.41-4.84,12.09
						l-3.45,11.25c-0.85,3.83-2.1,8.92-2.78,12.78l-1.56,11.96c-0.2,4-0.59,9.33-0.61,13.34l0.47,12.25
						c0.77,6.43,2.01,14.99,3.25,21.34l3.07,11.42c1.3,3.64,2.91,8.53,4.36,12.11l4.81,10.54c1.87,3.39,4.28,7.96,6.3,11.26
						l6.32,9.42c2.45,3.11,5.64,7.32,8.22,10.32l7.51,8.02c3.07,2.84,7.14,6.66,10.34,9.35l8.11,6.23c3.93,2.62,9.2,6.07,13.27,8.48
						l7.67,4.07c3.46,1.59,8.08,3.69,11.6,5.13l6.33,2.32c2.23,0.71,5.19,1.68,7.43,2.32l5.12,1.36c1.61,0.37,3.76,0.88,5.38,1.22
						l4.28,0.82c1.29,0.21,3.01,0.51,4.3,0.7l3.73,0.5c1.11,0.12,2.59,0.3,3.7,0.4l3.41,0.29c1.01,0.06,2.37,0.16,3.38,0.21
						l3.26,0.13c0.98,0.02,2.28,0.05,3.25,0.06l3.25-0.01c0.99-0.02,2.3-0.05,3.29-0.08l3.41-0.16c1.05-0.07,2.45-0.16,3.5-0.25
						l3.76-0.36c1.19-0.14,2.77-0.32,3.95-0.48l4.88-0.74c11.13-2.1,18.15-3.81,30.36-8.46l7.67-3.3
						c9.86-4.91,10.66-5.31,16.88-9.17l8.37-5.67c3.66-2.86,8.52-6.69,12.03-9.73l7.84-7.56c2.79-3.11,6.55-7.22,9.19-10.45
						l6.7-9.05c2.12-3.36,5.02-7.8,6.99-11.26l5.25-10.25c1.51-3.61,3.62-8.38,4.96-12.04l3.56-11.2c0.89-3.82,2.19-8.89,2.91-12.74
						l1.69-11.92c0.27-4.47,0.71-10.43,0.76-14.9L299.54,138c-0.47-3.92-0.97-9.16-1.61-13.05l-2.44-11.66
						c-1.09-3.72-2.44-8.71-3.69-12.37l-4.24-10.86c-1.68-3.48-3.82-8.16-5.65-11.56l-5.84-9.83c-2.25-3.21-5.17-7.54-7.56-10.64
						l-7.16-8.53c-2.85-2.93-6.6-6.88-9.58-9.67l-7.91-6.8c-10.47-7.83-11.57-8.64-19.89-13.5
						C260.61,40.32,284.75,81.45,284.65,131.89"/>
					<g>
						<path class="st4" d="M6.17,192.82C-23.01,88.66,72.75,16.3,168.82,69.92c70.55,39.38,102.22,144.5,39.18,202.19
							c45.25-29.32,76.55-82.97,76.65-140.22c0.09-50.44-24.05-91.58-60.68-112.39c-2.3-1.22-5.37-2.85-7.67-4.07
							c-3.46-1.59-8.08-3.69-11.6-5.13l-6.33-2.32c-2.23-0.71-5.19-1.68-7.43-2.32l-5.12-1.36c-1.61-0.37-3.76-0.88-5.38-1.22
							l-4.28-0.82c-1.29-0.21-3.01-0.51-4.3-0.7l-3.73-0.5c-1.11-0.12-2.59-0.3-3.7-0.4l-3.41-0.29c-1.01-0.06-2.37-0.16-3.38-0.21
							l-3.26-0.13c-0.98-0.02-2.28-0.05-3.25-0.06l-3.25,0.01c-0.99,0.02-2.3,0.05-3.29,0.08l-3.41,0.16
							c-1.05,0.07-2.45,0.16-3.5,0.25l-3.76,0.36c-1.19,0.14-2.77,0.32-3.95,0.48l-4.92,0.75c-14.26,2.69-21.11,4.9-32,9.13
							l-7.76,3.46c-10.05,5.18-10.65,5.49-16.46,9.2l-8.37,5.8c-3.59,2.87-8.37,6.72-11.81,9.77l-7.78,7.67
							c-2.74,3.12-6.44,7.25-9.04,10.5l-6.62,9.14c-2.08,3.38-4.94,7.84-6.87,11.31l-5.15,10.31c-1.47,3.62-3.53,8.41-4.84,12.09
							l-3.45,11.25c-0.85,3.83-2.1,8.92-2.78,12.78l-1.56,11.96c-0.2,4-0.59,9.33-0.61,13.34l0.47,12.25
							c0.77,6.43,2.01,14.99,3.25,21.34l3.07,11.42l3.26,9.34l-3.66-10.72C6.29,193.21,6.22,192.99,6.17,192.82"/>
						<path class="st4" d="M284.65,131.89c-0.11,57.25-31.41,110.9-76.65,140.22c-1.81,1.57-4.23,3.65-6.05,5.22
							c-17.31,12.91-64.76,38.75-131.28-0.01c3.83,2.28,9.04,5.14,12.98,7.23c3.46,1.59,8.08,3.69,11.6,5.13l6.33,2.32
							c2.23,0.71,5.19,1.68,7.43,2.32l5.12,1.36c1.61,0.37,3.76,0.88,5.38,1.22l4.28,0.82c1.29,0.21,3.01,0.51,4.3,0.7l3.73,0.5
							c1.11,0.12,2.59,0.3,3.7,0.4l3.41,0.29c1.01,0.06,2.37,0.16,3.38,0.21l3.26,0.13c0.98,0.02,2.28,0.05,3.25,0.06l3.25-0.01
							c0.99-0.02,2.3-0.05,3.29-0.08l3.41-0.16c1.05-0.07,2.45-0.16,3.5-0.25l3.76-0.36c1.19-0.14,2.77-0.32,3.95-0.48l4.88-0.74
							c11.13-2.1,18.15-3.81,30.36-8.46l7.67-3.3c9.86-4.91,10.66-5.31,16.88-9.17l8.37-5.67c3.66-2.86,8.52-6.69,12.03-9.73
							l7.84-7.56c2.79-3.11,6.55-7.22,9.19-10.45l6.7-9.05c2.12-3.36,5.02-7.8,6.99-11.26l5.25-10.25
							c1.51-3.61,3.62-8.38,4.96-12.04l3.56-11.2c0.89-3.82,2.19-8.89,2.91-12.74l1.69-11.92c0.27-4.47,0.71-10.43,0.76-14.9
							L299.54,138c-0.47-3.92-0.97-9.16-1.61-13.05l-2.44-11.66c-1.09-3.72-2.44-8.71-3.69-12.37l-4.24-10.86
							c-1.68-3.48-3.82-8.16-5.65-11.56l-5.84-9.83c-2.25-3.21-5.17-7.54-7.56-10.64l-7.16-8.53c-2.85-2.93-6.6-6.88-9.58-9.67
							l-7.91-6.8c-10.47-7.83-11.57-8.64-19.89-13.5C260.61,40.32,284.75,81.45,284.65,131.89"/>
					</g>
					<g>
						<path class="st5" d="M1.77,173.44C-12.41,53.84,109.68,11.16,192.7,78.88c42.64,34.78,80.7,113.91,31.8,180.95
							c36.18-30.7,60.06-77.95,60.15-127.94c0.09-50.44-24.05-91.58-60.68-112.39c-2.3-1.22-5.37-2.85-7.67-4.07
							c-3.46-1.59-8.08-3.69-11.6-5.13l-6.33-2.32c-2.23-0.71-5.19-1.68-7.43-2.32l-5.12-1.36c-1.61-0.37-3.76-0.88-5.38-1.22
							l-4.28-0.82c-1.29-0.21-3.01-0.51-4.3-0.7l-3.73-0.5c-1.11-0.12-2.59-0.3-3.7-0.4l-3.41-0.29c-1.01-0.06-2.37-0.16-3.38-0.21
							l-3.26-0.13c-0.98-0.02-2.28-0.05-3.25-0.06l-3.25,0.01c-0.99,0.02-2.3,0.05-3.29,0.08l-3.41,0.16
							c-1.05,0.07-2.45,0.16-3.5,0.25l-3.76,0.36c-1.19,0.14-2.77,0.32-3.95,0.48l-4.92,0.75c-14.26,2.69-21.11,4.9-32,9.13
							l-7.76,3.46c-10.05,5.18-10.65,5.49-16.46,9.2l-8.37,5.8c-3.59,2.87-8.37,6.72-11.81,9.77l-7.78,7.67
							c-2.74,3.12-6.44,7.25-9.04,10.5l-6.62,9.14c-2.08,3.38-4.94,7.84-6.87,11.31l-5.15,10.31c-1.47,3.62-3.53,8.41-4.84,12.09
							l-3.45,11.25c-0.85,3.83-2.1,8.92-2.78,12.78l-1.56,11.96c-0.2,4-0.59,9.33-0.61,13.34l0.47,12.25
							c0.49,4.11,1.04,9.61,1.72,13.69L1.77,173.44"/>
						<path class="st5" d="M284.65,131.89c-0.09,49.99-23.97,97.23-60.15,127.94c0,0,0,0,0,0c-27.5,36.23-76.68,48.54-125.29,31.36
							l6.26,2.1l3.54,1.05l5.12,1.36c1.61,0.37,3.76,0.88,5.38,1.22l4.28,0.82c1.29,0.21,3.01,0.51,4.3,0.7l3.73,0.5
							c1.11,0.12,2.59,0.3,3.7,0.4l3.41,0.29c1.01,0.06,2.37,0.16,3.38,0.21l3.26,0.13c0.98,0.02,2.28,0.05,3.25,0.06l3.25-0.01
							c0.99-0.02,2.3-0.05,3.29-0.08l3.41-0.16c1.05-0.07,2.45-0.16,3.5-0.25l3.76-0.36c1.19-0.14,2.77-0.32,3.95-0.48l4.88-0.74
							c11.13-2.1,18.15-3.81,30.36-8.46l7.67-3.3c9.86-4.91,10.66-5.31,16.88-9.17l8.37-5.67c3.66-2.86,8.52-6.69,12.03-9.73
							l7.84-7.56c2.79-3.11,6.55-7.22,9.19-10.45l6.7-9.05c2.12-3.36,5.02-7.8,6.99-11.26l5.25-10.25
							c1.51-3.61,3.62-8.38,4.96-12.04l3.56-11.2c0.89-3.82,2.19-8.89,2.91-12.74l1.69-11.92c0.27-4.47,0.71-10.43,0.76-14.9
							L299.54,138c-0.47-3.92-0.97-9.16-1.61-13.05l-2.44-11.66c-1.09-3.72-2.44-8.71-3.69-12.37l-4.24-10.86
							c-1.68-3.48-3.82-8.16-5.65-11.56l-5.84-9.83c-2.25-3.21-5.17-7.54-7.56-10.64l-7.16-8.53c-2.85-2.93-6.6-6.88-9.58-9.67
							l-7.91-6.8c-10.47-7.83-11.57-8.64-19.89-13.5C260.61,40.32,284.75,81.45,284.65,131.89"/>
					</g>
					<g>
						<path class="st6" d="M-0.05,149.63C5.97,21.98,144.25,14.57,211.56,87.58c43.38,47.06,54.2,110.92,26.92,158.92
							c28.23-30.2,46.1-71.38,46.18-114.61c0.09-50.44-24.05-91.58-60.68-112.39c-2.3-1.22-5.37-2.85-7.67-4.07
							c-3.46-1.59-8.08-3.69-11.6-5.13l-6.33-2.32c-2.23-0.71-5.19-1.68-7.43-2.32l-5.12-1.36c-1.61-0.37-3.76-0.88-5.38-1.22
							l-4.28-0.82c-1.29-0.21-3.01-0.51-4.3-0.7l-3.73-0.5c-1.11-0.12-2.59-0.3-3.7-0.4l-3.41-0.29c-1.01-0.06-2.37-0.16-3.38-0.21
							l-3.26-0.13c-0.98-0.02-2.28-0.05-3.25-0.06l-3.25,0.01c-0.99,0.02-2.3,0.05-3.29,0.08l-3.41,0.16
							c-1.05,0.07-2.45,0.16-3.5,0.25l-3.76,0.36c-1.19,0.14-2.77,0.32-3.95,0.48l-4.92,0.75c-14.26,2.69-21.11,4.9-32,9.13
							l-7.76,3.46c-10.05,5.18-10.65,5.49-16.46,9.2l-8.37,5.8c-3.59,2.87-8.37,6.72-11.81,9.77l-7.78,7.67
							c-2.74,3.12-6.44,7.25-9.04,10.5l-6.62,9.14c-2.08,3.38-4.94,7.84-6.87,11.31l-5.15,10.31c-1.47,3.62-3.53,8.41-4.84,12.09
							l-3.45,11.25c-0.85,3.83-2.1,8.92-2.78,12.78l-1.56,11.96c-0.2,4-0.59,9.33-0.61,13.34L-0.05,149.63"/>
						<path class="st6" d="M284.65,131.89c-0.08,43.23-17.95,84.41-46.18,114.61c0,0,0,0,0,0c-23.32,40.78-66.56,59.86-115.67,51.06
							l4.19,0.71l1.09,0.17l3.73,0.5c1.11,0.12,2.59,0.3,3.7,0.4l3.41,0.29c1.01,0.06,2.37,0.16,3.38,0.21l3.26,0.13
							c0.98,0.02,2.28,0.05,3.25,0.06l3.25-0.01c0.99-0.02,2.3-0.05,3.29-0.08l3.41-0.16c1.05-0.07,2.45-0.16,3.5-0.25l3.76-0.36
							c1.19-0.14,2.77-0.32,3.95-0.48l4.88-0.74c11.13-2.1,18.15-3.81,30.36-8.46l7.67-3.3c9.86-4.91,10.66-5.31,16.88-9.17
							l8.37-5.67c3.66-2.86,8.52-6.69,12.03-9.73l7.84-7.56c2.79-3.11,6.55-7.22,9.19-10.45l6.7-9.05c2.12-3.36,5.02-7.8,6.99-11.26
							l5.25-10.25c1.51-3.61,3.62-8.38,4.96-12.04l3.56-11.2c0.89-3.82,2.19-8.89,2.91-12.74l1.69-11.92
							c0.27-4.47,0.71-10.43,0.76-14.9L299.54,138c-0.47-3.92-0.97-9.16-1.61-13.05l-2.44-11.66c-1.09-3.72-2.44-8.71-3.69-12.37
							l-4.24-10.86c-1.68-3.48-3.82-8.16-5.65-11.56l-5.84-9.83c-2.25-3.21-5.17-7.54-7.56-10.64l-7.16-8.53
							c-2.85-2.93-6.6-6.88-9.58-9.67l-7.91-6.8c-10.47-7.83-11.57-8.64-19.89-13.5C260.61,40.32,284.75,81.45,284.65,131.89"/>
					</g>
					<g>
						<path class="st7" d="M3.28,118.79C28.9,9.74,174.03,5.38,238.57,111.72c22.9,37.73,27.62,83.66,12.33,119.88
							c20.94-28.2,33.68-63.22,33.75-99.7c0.09-50.44-24.05-91.58-60.68-112.39c-2.3-1.22-5.37-2.85-7.67-4.07
							c-3.46-1.59-8.08-3.69-11.6-5.13l-6.33-2.32c-2.23-0.71-5.19-1.68-7.43-2.32l-5.12-1.36c-1.61-0.37-3.76-0.88-5.38-1.22
							l-4.28-0.82c-1.29-0.21-3.01-0.51-4.3-0.7l-3.73-0.5c-1.11-0.12-2.59-0.3-3.7-0.4l-3.41-0.29c-1.01-0.06-2.37-0.16-3.38-0.21
							l-3.26-0.13c-0.98-0.02-2.28-0.05-3.25-0.06l-3.25,0.01c-0.99,0.02-2.3,0.05-3.29,0.08l-3.41,0.16
							c-1.05,0.07-2.45,0.16-3.5,0.25l-3.76,0.36c-1.19,0.14-2.77,0.32-3.95,0.48l-4.92,0.75c-14.26,2.69-21.11,4.9-32,9.13
							l-7.76,3.46c-10.05,5.18-10.65,5.49-16.46,9.2l-8.37,5.8c-3.59,2.87-8.37,6.72-11.81,9.77l-7.78,7.67
							c-2.74,3.12-6.44,7.25-9.04,10.5l-6.62,9.14c-2.08,3.38-4.94,7.84-6.87,11.31l-5.15,10.31c-1.47,3.62-3.53,8.41-4.84,12.09
							l-3.45,11.25c-0.85,3.83-2.1,8.92-2.78,12.78c-0.18,1.16-0.43,2.7-0.61,3.85C2.05,125.45,2.69,121.63,3.28,118.79"/>
						<path class="st7" d="M284.65,131.89c-0.07,36.48-12.8,71.51-33.75,99.7c-0.27,0.8-0.64,1.86-0.91,2.66
							c-18.37,42.57-56.25,66.52-103.93,65.73c1.8,0.03,4.2,0.04,6,0.04c0.99-0.02,2.3-0.05,3.29-0.08l3.41-0.16
							c1.05-0.07,2.45-0.16,3.5-0.25l3.76-0.36c1.19-0.14,2.77-0.32,3.95-0.48l4.88-0.74c11.13-2.1,18.15-3.81,30.36-8.46l7.67-3.3
							c9.86-4.91,10.66-5.31,16.88-9.17l8.37-5.67c3.66-2.86,8.52-6.69,12.03-9.73l7.84-7.56c2.79-3.11,6.55-7.22,9.19-10.45
							l6.7-9.05c2.12-3.36,5.02-7.8,6.99-11.26l5.25-10.25c1.51-3.61,3.62-8.38,4.96-12.04l3.56-11.2
							c0.89-3.82,2.19-8.89,2.91-12.74l1.69-11.92c0.27-4.47,0.71-10.43,0.76-14.9L299.54,138c-0.47-3.92-0.97-9.16-1.61-13.05
							l-2.44-11.66c-1.09-3.72-2.44-8.71-3.69-12.37l-4.24-10.86c-1.68-3.48-3.82-8.16-5.65-11.56l-5.84-9.83
							c-2.25-3.21-5.17-7.54-7.56-10.64l-7.16-8.53c-2.85-2.93-6.6-6.88-9.58-9.67l-7.91-6.8c-10.47-7.83-11.57-8.64-19.89-13.5
							C260.61,40.32,284.75,81.45,284.65,131.89"/>
					</g>
					<g>
						<path class="st8" d="M7.31,103.53C51.33-12.92,201.05,13.82,251.8,119.57c10.39,21.65,20.64,55.65,10.48,94.63
							c14.09-24.64,22.32-53,22.38-82.31c0.09-50.44-24.05-91.58-60.68-112.39c-2.3-1.22-5.37-2.85-7.67-4.07
							c-3.46-1.59-8.08-3.69-11.6-5.13l-6.33-2.32c-2.23-0.71-5.19-1.68-7.43-2.32l-5.12-1.36c-1.61-0.37-3.76-0.88-5.38-1.22
							l-4.28-0.82c-1.29-0.21-3.01-0.51-4.3-0.7l-3.73-0.5c-1.11-0.12-2.59-0.3-3.7-0.4l-3.41-0.29c-1.01-0.06-2.37-0.16-3.38-0.21
							l-3.26-0.13c-0.98-0.02-2.28-0.05-3.25-0.06l-3.25,0.01c-0.99,0.02-2.3,0.05-3.29,0.08l-3.41,0.16
							c-1.05,0.07-2.45,0.16-3.5,0.25l-3.76,0.36c-1.19,0.14-2.77,0.32-3.95,0.48l-4.92,0.75c-14.26,2.69-21.11,4.9-32,9.13
							l-7.76,3.46c-10.05,5.18-10.65,5.49-16.46,9.2l-8.37,5.8c-3.59,2.87-8.37,6.72-11.81,9.77l-7.78,7.67
							c-2.74,3.12-6.44,7.25-9.04,10.5l-6.62,9.14c-2.08,3.38-4.94,7.84-6.87,11.31l-5.15,10.31c-1.47,3.62-3.53,8.41-4.84,12.09
							c-0.47,1.4-1.09,3.28-1.55,4.68C6.95,104.63,7.14,104,7.31,103.53"/>
						<path class="st8" d="M284.65,131.89c-0.05,29.31-8.28,57.67-22.37,82.31c0,0,0,0,0,0c-9.84,45.09-44.87,77.42-91.43,84.37
							l4.93-0.78c7.48-1.46,15.96-3.11,29.45-8.3l7.67-3.3c9.86-4.91,10.66-5.31,16.88-9.17l8.37-5.67
							c3.66-2.86,8.52-6.69,12.03-9.73l7.84-7.56c2.79-3.11,6.55-7.22,9.19-10.45l6.7-9.05c2.12-3.36,5.02-7.8,6.99-11.26
							l5.25-10.25c1.51-3.61,3.62-8.38,4.96-12.04l3.56-11.2c0.89-3.82,2.19-8.89,2.91-12.74l1.69-11.92
							c0.27-4.47,0.71-10.43,0.76-14.9L299.54,138c-0.47-3.92-0.97-9.16-1.61-13.05l-2.44-11.66c-1.09-3.72-2.44-8.71-3.69-12.37
							l-4.24-10.86c-1.68-3.48-3.82-8.16-5.65-11.56l-5.84-9.83c-2.25-3.21-5.17-7.54-7.56-10.64l-7.16-8.53
							c-2.85-2.93-6.6-6.88-9.58-9.67l-7.91-6.8c-10.47-7.83-11.57-8.64-19.89-13.5C260.61,40.32,284.75,81.45,284.65,131.89"/>
					</g>
					<g>
						<path class="st9" d="M24.11,68.69c71-101.48,227.22-31.6,247.37,82c2.81,15.83,3.75,21.16,1.54,41.17
							c7.44-18.85,11.6-39.17,11.64-59.96c0.09-50.44-24.05-91.58-60.68-112.39c-2.3-1.22-5.37-2.85-7.67-4.07
							c-3.46-1.59-8.08-3.69-11.6-5.13l-6.33-2.32c-2.23-0.71-5.19-1.68-7.43-2.32l-5.12-1.36c-1.61-0.37-3.76-0.88-5.38-1.22
							l-4.28-0.82c-1.29-0.21-3.01-0.51-4.3-0.7l-3.73-0.5c-1.11-0.12-2.59-0.3-3.7-0.4l-3.41-0.29c-1.01-0.06-2.37-0.16-3.38-0.21
							l-3.26-0.13c-0.98-0.02-2.28-0.05-3.25-0.06l-3.25,0.01c-0.99,0.02-2.3,0.05-3.29,0.08l-3.41,0.16
							c-1.05,0.07-2.45,0.16-3.5,0.25l-3.76,0.36c-1.19,0.14-2.77,0.32-3.95,0.48l-4.92,0.75c-14.26,2.69-21.11,4.9-32,9.13
							l-7.76,3.46c-10.05,5.18-10.65,5.49-16.46,9.2l-8.37,5.8c-3.59,2.87-8.37,6.72-11.81,9.77l-7.78,7.67
							c-2.74,3.12-6.44,7.25-9.04,10.5l-6.62,9.14c-2.08,3.38-4.94,7.84-6.87,11.31l4.1-6.84C22.94,70.44,23.59,69.43,24.11,68.69"
							/>
						<path class="st9" d="M284.65,131.89c-0.04,20.79-4.19,41.11-11.64,59.96c-0.05,2.61-0.12,6.1-0.17,8.71
							c-10.93,62.66-53.75,84.96-78.31,92.68l5.47-1.81l5.21-1.95l7.67-3.3c9.86-4.91,10.66-5.31,16.88-9.17l8.37-5.67
							c3.66-2.86,8.52-6.69,12.03-9.73l7.84-7.56c2.79-3.11,6.55-7.22,9.19-10.45l6.7-9.05c2.12-3.36,5.02-7.8,6.99-11.26
							l5.25-10.25c1.51-3.61,3.62-8.38,4.96-12.04l3.56-11.2c0.89-3.82,2.19-8.89,2.91-12.74l1.69-11.92
							c0.27-4.47,0.71-10.43,0.76-14.9L299.54,138c-0.47-3.92-0.97-9.16-1.61-13.05l-2.44-11.66c-1.09-3.72-2.44-8.71-3.69-12.37
							l-4.24-10.86c-1.68-3.48-3.82-8.16-5.65-11.56l-5.84-9.83c-2.25-3.21-5.17-7.54-7.56-10.64l-7.16-8.53
							c-2.85-2.93-6.6-6.88-9.58-9.67l-7.91-6.8c-10.47-7.83-11.57-8.64-19.89-13.5C260.61,40.32,284.75,81.45,284.65,131.89"/>
					</g>
					<path class="st10" d="M108.52,290.69c93.97,18.5,150.93-82.07,93.77-165.56C143.34,39.04,20.07,53.05,5.41,147.51
						C-4.27,209.92,44.87,278.16,108.52,290.69"/>
					<path class="st11" d="M94.84,285.59c97.84,30.24,154.02-67.25,109.82-146.1c-53.77-95.91-173.82-83.82-194.9-2.6
						C-7.83,204.68,39.55,268.51,94.84,285.59"/>
					<path class="st12" d="M76.05,276.19c84.33,43.66,157-30.39,134.37-107.97C180.34,65.05,57.2,49.47,18.55,122.34
						C-8.96,174.2,17.91,246.09,76.05,276.19"/>
					<path class="st13" d="M70.19,271.31c78.91,44.61,158.29-16.5,134.81-103.79C182.83,85.09,58.25,45.35,18.45,129.65
						C-6.61,182.73,24.97,245.75,70.19,271.31"/>
					<path class="st14" d="M61.31,263.6c72.06,48.99,152.78,1.9,141.58-82.6C191.48,94.86,77.68,54.36,28.95,119.09
						C-5.98,165.47,17.23,233.64,61.31,263.6"/>
					<path class="st15" d="M60.17,260.54c74.24,53.21,150.66-4.63,138.08-80.07C183.29,90.75,66.84,66.63,28.83,126.06
						C-1.52,173.5,21.47,232.8,60.17,260.54"/>
					<path class="st16" d="M61.37,258.87c76.56,54.07,144.72-13.1,132.19-78.89C176.62,91.11,66.9,72.22,29,133.4
						C4.79,172.48,19.01,227.59,61.37,258.87"/>
					<path class="st17" d="M52.51,248.5c66.61,60.35,139.07,8.44,137.69-55.46c-1.89-87.72-105.53-112.22-148.31-68.7
						C6.26,160.57,18.62,217.79,52.51,248.5"/>
					<path class="st18" d="M54.48,246.8c63.06,57.02,140.02,4.56,131.21-67.51c-8.54-69.9-107.97-98.86-147.75-43.03
						C11.03,174.01,26.38,221.39,54.48,246.8"/>
					<path class="st19" d="M57,245.03c64.14,56.13,133.96-4.84,125.53-65.98c-9.06-65.71-100.62-92.52-139.95-40.97
						C12.81,177.09,33.09,224.1,57,245.03"/>
					<path class="st20" d="M50.46,233.42c51.99,60.79,125.73,16.57,129.3-41.24c4.12-66.74-81.83-99.02-123.67-60.72
						C14.89,169.16,34.39,214.64,50.46,233.42"/>
					<path class="st21" d="M53.92,231.62c48.56,55.2,118.72,13.56,122.66-39.65c4.21-56.86-68.25-101.22-118.46-56.23
						C23.97,166.35,35.11,210.24,53.92,231.62"/>
					<path class="st22" d="M58.11,229.77c44.92,50.02,111.05,10.9,115.29-37.98c4.41-50.93-62.02-99.56-115.04-50.24
						C37.88,160.6,32.74,201.52,58.11,229.77"/>
					<path class="st23" d="M62.95,227.94c40.46,41.39,102.27,12.73,107.3-36.31c5.73-55.84-60.25-88.87-103.82-51.98
						C37.05,164.54,40.91,205.4,62.95,227.94"/>
					<path class="st24" d="M59.49,215.32c21.36,32.11,56.18,26.78,56.51,26.71c11.65-2.55,47.11-10.32,52.05-50.5
						c5.92-48.17-50.4-81.68-92.72-55.17C50.08,152.18,42.53,189.82,59.49,215.32"/>
					<path class="st25" d="M64.52,213.81c28.85,41.9,94.18,27.48,101.32-22.37c3.24-22.66-8.31-43.3-31.69-56.63
						c-6.34-3.61-29.31-13.92-58.51,5.23C58.2,151.48,44.21,184.32,64.52,213.81"/>
					<path class="st26" d="M68.69,212.7c29.04,36.77,87.59,23.61,94.93-21.33c1.64-10.06,2.06-35.45-29.43-54.02
						c-9.48-5.59-29.27-12.5-55.26,4.07C56.18,155.92,51.21,190.56,68.69,212.7"/>
					<path class="st27" d="M73.08,211.63c29.98,35.67,81.32,17.87,88.31-20.33c7.3-39.85-40.99-72.14-75.98-50.8
						C49.03,162.68,63.64,200.4,73.08,211.63"/>
					<path class="st28" d="M73.57,205.23c8.06,12.38,23.5,26.18,51.28,21.64c13.53-2.21,30.55-17.05,34.31-35.62
						c3.53-17.41-4.15-33.52-22.83-47.88c-10.24-7.87-33.83-9.84-44.28-3.7c-20.66,12.14-21.64,15.61-26.34,32.31
						C65.01,174.44,62.12,187.65,73.57,205.23"/>
					<path class="st29" d="M80.28,210.1c13.09,13.44,36.74,17.39,44.08,14.34c17.95-7.48,18.29-7.62,27.4-20.41
						c3.88-5.45,7.09-16.16,5.71-26.09c-2.03-14.59-11.85-24.7-14.81-27.45c-7.76-7.21-7.76-7.21-28.36-12.64
						c-12.98-3.42-35.53,12.3-39.36,18.33C56.5,185.14,79.3,209.09,80.28,210.1"/>
					<path class="st30" d="M74.95,197.78c5.31,10.11,18.73,26.7,48.93,24.19c8.7-0.72,27.46-14.78,30.81-30.8
						c5.08-24.3-13.93-39.99-14.75-40.64c-9.99-8.07-24.92-10.67-25.55-10.77c-5.82-0.99-14.01,0.82-19.43,3.16
						c-5.68,2.46-12.27,7.95-16.29,12.66c-1.42,1.66-7.65,15.25-7.69,15.36C70.93,171.05,68.33,185.16,74.95,197.78"/>
					<path class="st31" d="M77.48,197.29c3.29,5.82,16.33,24.62,45.93,22.2l14.3-6.17c7.33-7.14,12.17-11.85,14.81-22.16
						c4.43-17.31-5-32.31-15.29-40.57c-6.82-5.47-22.6-8.91-22.74-8.92c-5.85-0.76-13.96,1.07-19.35,3.47
						c-2.53,1.12-15.47,7.63-21.45,25.31C72.81,173,71.52,186.75,77.48,197.29"/>
					<path class="st32" d="M80.06,196.81c0.04,0.07,9.21,10.7,10.33,11.51c4.7,3.39,12.13,6.01,17.38,8.48
						c4.12,1.94,10.65,0.6,15.2,0.23c4.73-0.38,11.1-2.97,14.56-6.22c8.75-8.25,11.85-15.87,12.91-19.67
						c1.92-6.84,4.2-24.48-15.92-40.48c-4.97-3.95-13.6-6.56-19.92-7.1c-5.87-0.5-13.9,1.33-19.26,3.77
						C83,152.94,66.9,174.87,80.06,196.81"/>
					<path class="st33" d="M82.69,196.35c4.7,7.77,16.13,20.53,39.9,18.64c4.84-0.38,11.18-3.4,14.74-6.7
						c6.83-6.33,10.98-17.06,11.01-17.15c4.04-13.29-1.36-28.2-13.76-37.97c-1.81-1.43-17.43-7.48-19.89-7.7
						c-5.85-0.54-13.83,1.6-19.16,4.07C95.2,149.68,66.04,168.81,82.69,196.35"/>
					<path class="st34" d="M85.37,195.9c5.32,8.74,17.02,14.14,20.86,15.91c4.37,2.02,11.2,1.48,15.99,1.11
						c4.95-0.39,11.24-3.84,14.92-7.18c3.07-2.78,9.07-14.51,9.1-14.6c4.46-13.65-2.56-28.37-11.44-35.3
						c-5.14-4.01-13.53-7.8-20.02-8.48c-5.83-0.61-13.75,1.87-19.05,4.37C95.53,151.83,69.98,170.63,85.37,195.9"/>
					<path class="st35" d="M87.87,195.51c0.06,0.09,7.91,9.42,17.93,13.94c4.41,1.99,11.25,1.77,16.08,1.4
						c0.07-0.01,13.56-6.5,15.09-7.85c3.11-2.75,5.85-7.91,7.19-11.84c5.8-16.9-5.96-30.32-9.42-32.99
						c-2.78-2.14-17.23-8.64-19.83-8.91c-0.96-0.1-18.13,4.23-18.93,4.78c-4.64,3.16-10.55,9.16-11.63,14.67
						C82.86,176.33,81,185.82,87.87,195.51"/>
					<path class="st36" d="M90.35,195.14c0.06,0.08,13.06,11.04,14.82,11.81c4.52,1.97,11.43,2.17,16.35,1.8
						c1.33-0.1,12.33-6.32,15.24-8.81c2.33-2,4.32-5.85,5.3-8.76c6.36-18.79-7.11-30.42-7.25-30.53
						c-0.11-0.09-18.65-9.39-19.79-9.51c-0.7-0.07-18.06,5-18.77,5.49C86.55,163.28,79.96,181.35,90.35,195.14"/>
					<path class="st37" d="M92.88,194.78c2.73,3.55,7.48,7.65,11.61,9.38c4.67,1.96,11.64,2.86,16.69,2.48
						c1.79-0.14,15.27-9.68,15.38-9.78c1.53-1.25,2.76-3.77,3.4-5.64c4.85-14.11-3.31-26.79-5.06-28.08
						c-5.33-3.93-13.15-9.18-19.74-9.85c-5.83-0.6-13.81,2.58-18.62,5.94C88.51,164.83,82.94,181.88,92.88,194.78"/>
					<path class="st38" d="M95.45,194.44c1.99,2.56,5.36,5.63,8.37,6.82c4.84,1.91,11.95,4.3,17.03,3.21
						c5.54-1.19,11.06-7.24,15.54-10.71c0.69-0.53,1.24-1.66,1.5-2.49c5.07-16.4-1.59-24.17-4.69-26.75
						c-4.61-3.84-11.88-8.58-17.86-9.03c-5.84-0.44-13.02,4.15-18.46,6.31c-6.64,2.63-7.21,19.77-7.19,19.93
						C90.26,185.88,92.88,191.14,95.45,194.44"/>
					<path class="st39" d="M98.02,194.12c1.23,1.57,3.25,3.55,5.13,4.22c5.01,1.77,12.12,4.83,17.32,3.73
						c5.39-1.14,10.64-7.23,14.9-10.73c0.53-0.43,0.59-1.48,0.75-2.14c0.78-3.27,2.47-7.86,1.58-11.11
						c-1.25-4.57-4.65-10.42-8.3-13.42c-3.6-2.96-9.24-6.69-13.9-6.96c-5.83-0.34-13,4.21-18.29,6.68
						c-1.03,0.48-1.89,1.93-2.38,2.96C88.32,180.88,95.59,191.02,98.02,194.12"/>
					<path class="st40" d="M100.62,193.81c0.46,0.58,1.19,1.36,1.9,1.57c5.2,1.56,12.27,5.31,17.6,4.26
						c4.09-0.8,8.71-4.85,11.23-8.17c2.35-3.1,3.65-8.41,4.25-12.25c0.08-0.53,0.22-1.35-0.09-1.79c-2.75-3.95-6.17-9.6-9.92-12.62
						c-2.59-2.09-6.61-4.76-9.92-4.92c-5.82-0.29-14.33,2.61-18.12,7.04c-2.83,3.31-3.69,9.85-3.19,14.18
						C94.84,185.34,97.98,190.48,100.62,193.81"/>
					<path class="st41" d="M101.49,190.4c0.84,1.07,2.17,2.46,3.44,2.93c4.31,1.6,10.31,4.71,14.83,3.87
						c2.77-0.51,6.02-3.2,7.56-5.55c2.38-3.61,5.64-9.23,4.99-13.5c-0.76-4.99-6.91-9.61-10.52-13.13
						c-1.42-1.39-3.96-2.83-5.95-2.93C110.75,161.85,86.83,171.68,101.49,190.4"/>
					<path class="st42" d="M99.99,182.45c2.85,3.71,7.81,7.74,11.76,10.24c2.01,1.27,5.33,2.51,7.66,2.06
						c1.43-0.27,3.18-1.62,3.9-2.89c2.14-3.82,5.98-9.24,5.35-13.57c-0.02-0.13-9.83-13.87-12.64-14.01
						c-2.01-0.1-3.46-0.17-16.63,14.75C98.71,179.81,99.36,181.62,99.99,182.45"/>
					<path class="st43" d="M118.64,192.16c0.12,0.07,0.31,0.15,0.45,0.12c0.68-0.13,5.96-13.7,5.94-13.82
						c-0.56-4.03-4.6-10.25-8.67-10.45c-5.08-0.25-12.27,6.9-12,11.99C104.66,185.62,113.68,189.5,118.64,192.16"/>
					<path class="st44" d="M118.29,186.04c2.34-0.55,3.46-5,3.1-7.38c-0.32-2.09-2.41-5.29-4.52-5.39
						c-2.63-0.12-6.33,3.53-6.24,6.16C110.73,182.46,115.34,186.73,118.29,186.04"/>
					<path class="st45" d="M117.53,179.46c0.18-0.04,0.27-0.39,0.24-0.57c-0.02-0.16-0.19-0.4-0.35-0.41
						c-0.2-0.01-0.48,0.27-0.48,0.46C116.95,179.18,117.3,179.51,117.53,179.46"/>
				</g>
			</g>
			<g class="st0">
				<defs>
					<path id="SVGID_3_" class="st0" d="M75.98,280.49c-2.6-1.51-6.07-3.53-8.54-5.24c-3.94-2.71-9.1-6.49-12.84-9.48
						c-5.11-4.09-11.26-10.33-15.79-15.05c-2.98-3.1-6.67-7.53-9.13-11.07c-2.27-3.27-5.36-7.61-7.48-10.99
						c-1.83-2.92-4.04-6.95-5.65-9.99c-1.82-3.45-3.96-8.2-5.45-11.8c-1.35-3.24-2.81-7.69-4.01-10.99
						c-1.34-3.66-2.67-8.71-3.43-12.54c-1.4-7.08-2.92-16.61-3.42-23.81c-0.46-6.59-0.58-15.47,0.22-22.03
						c0.48-3.92,0.84-9.19,1.66-13.05c0.74-3.49,1.59-8.19,2.48-11.65c0.97-3.76,2.32-8.77,3.74-12.38
						c1.28-3.25,2.85-7.64,4.27-10.82c1.58-3.54,3.85-8.18,5.71-11.58c1.64-3,3.97-6.92,5.85-9.77c2.17-3.29,5.13-7.64,7.64-10.68
						c4.2-5.08,9.98-11.74,14.78-16.26c2.87-2.71,6.86-6.15,9.92-8.64c2.39-1.94,5.67-4.4,8.23-6.11c3.43-2.3,8.11-5.21,11.67-7.3
						c2.26-1.33,5.36-2.95,7.73-4.07c2.32-1.09,5.41-2.53,7.77-3.53c1.96-0.84,4.63-1.83,6.62-2.59c3.26-1.24,7.71-2.6,11.07-3.54
						c6.91-1.93,11.48-2.75,15.9-3.55c2.34-0.42,7.87-1.18,12.16-1.51c4.3-0.33,15.73-1.2,30.4,0.59
						c7.22,0.88,12.31,2.01,12.36,2.03c3.04,0.68,7.07,1.65,10.07,2.45c2,0.54,4.63,1.37,6.6,2.02c2.3,0.76,5.34,1.86,7.59,2.75
						c2.32,0.91,5.37,2.24,7.65,3.26c3.58,1.59,8.18,4.06,11.62,5.95C202.81,7.48,177.48,2.24,150.25,5.9
						c27.23-3.66,52.56,1.58,73.73,13.6c5.22,3.2,12.21,7.47,17.01,11.26c3.32,2.61,7.65,6.22,10.78,9.05
						c2.45,2.22,5.6,5.32,7.82,7.77c2.77,3.05,6.36,7.21,8.91,10.44c2.11,2.67,4.73,6.37,6.62,9.2c2.18,3.29,4.88,7.81,6.78,11.27
						c1.67,3.04,3.63,7.23,5.12,10.35c1.68,3.51,3.49,8.39,4.77,12.07c1.17,3.33,2.39,7.89,3.41,11.27
						c1.13,3.75,2.23,8.88,2.72,12.76c0.46,3.59,1.22,8.36,1.52,11.97c0.33,3.99,0.55,9.33,0.56,13.33c0.01,7.3-0.94,17.02-2,24.24
						c-0.63,4.31-1.79,10.02-3.05,14.19c-1.02,3.38-2.29,7.91-3.47,11.24c-1.29,3.61-3.08,8.42-4.77,11.86
						c-1.52,3.1-3.48,7.28-5.15,10.31c-1.86,3.35-4.49,7.73-6.61,10.91c-6.23,9.36-12.32,16.17-14.95,18.96
						c-3.82,4.06-9.32,9.71-17.74,16.29c-2.41,1.88-5.69,4.31-8.24,6c-3.46,2.29-8.2,5.14-11.8,7.22c-5.9,3.42-15.11,7.3-17,8.02
						c-3.24,1.24-7.6,2.8-10.91,3.83c-3.21,0.99-7.54,2.15-10.81,2.9c-18.16,4.19-36.79,4.93-55.35,2.22
						c-6.4-0.94-11.44-2.13-13.59-2.64c-5.91-1.4-11.66-3.34-11.71-3.36c-5.77-1.98-8.23-2.88-15.24-6
						C84.02,284.85,79.37,282.46,75.98,280.49z"/>
				</defs>
				<clipPath id="SVGID_4_">
					<use xlink:href="#SVGID_3_"  style="overflow:visible;"/>
				</clipPath>
				<g class="st46">
					<path class="st2" d="M75.98,280.49c-25.98-15.08-45.42-35.3-59.42-61.81c-20.89-39.55-16.3-79.49-16.09-81.17
						c0.91-7.46,2.29-17.42,4.14-24.7c1.81-7.14,5.33-16.35,8.01-23.21c2.68-6.83,11.49-22.7,19.2-32.02
						c5.81-7.03,16.63-20.11,32.94-31.02c7.09-4.74,21.84-14.61,44.86-21.03c19.21-5.36,38.87-6.86,58.46-4.46
						c28.64,3.5,47.74,13.98,55.89,18.45C202.81,7.48,177.48,2.24,150.25,5.9c27.23-3.66,52.56,1.58,73.73,13.6
						c5.22,3.2,12.21,7.47,17.01,11.26c4.37,3.44,11.68,9.21,18.6,16.82c13.67,15.03,20.19,26.1,27.43,41.26
						c3.2,6.69,6.33,16.16,8.18,23.34c1.88,7.29,3.29,17.27,4.24,24.74c0.45,3.47,1.66,16.43-1.44,37.57
						c-1.51,10.29-8.7,46.31-38.01,77.47c-21.22,22.56-46.96,37.45-76.5,44.26C131.56,308.2,91.01,289.21,75.98,280.49"/>
					<path class="st2" d="M223.97,19.5c9.65,5.7,17.29,10.85,27.79,20.31l7.82,7.77c2.7,3.11,6.36,7.21,8.91,10.44l6.62,9.2
						c2.05,3.37,4.88,7.81,6.78,11.27l5.12,10.35c1.45,3.61,3.49,8.39,4.77,12.07l3.41,11.27c0.83,3.83,2.06,8.91,2.72,12.76
						l1.52,11.97c0.18,4,0.55,9.33,0.56,13.33l-0.52,12.25c-0.54,4.38-1.17,10.23-1.93,14.58l-2.6,11.6
						c-1.15,3.7-2.56,8.68-3.87,12.33l-4.38,10.77c-1.73,3.47-3.95,8.14-5.83,11.52l-5.94,9.7c-2.31,3.2-5.31,7.52-7.76,10.62
						l-7.19,8.34c-2.92,2.93-6.78,6.88-9.83,9.67l-7.91,6.62c-3.7,2.7-8.66,6.27-12.49,8.78l-7.54,4.44
						c-9.89,5.08-10.48,5.39-17,8.02l-5.44,2.03c-7.58,2.49-15.43,5.07-29.79,7.17l-3.9,0.47c-1.14,0.11-2.67,0.27-3.81,0.36
						l-3.49,0.25c-1.03,0.05-2.39,0.13-3.42,0.16l-3.29,0.08c-0.98,0-2.28,0.02-3.25,0.01l-3.25-0.06
						c-0.98-0.04-2.28-0.08-3.26-0.13l-3.36-0.21c-1.03-0.09-2.4-0.19-3.43-0.29l-3.65-0.4c-1.14-0.15-2.65-0.34-3.79-0.51
						l-4.15-0.67c-1.33-0.25-3.1-0.57-4.42-0.85l-4.96-1.12c-1.66-0.44-3.89-0.99-5.54-1.46l-6.17-1.9
						c-2.28-0.81-5.33-1.87-7.59-2.75l-7.65-3.26c-3.51-1.73-8.18-4.07-11.62-5.95l-8.54-5.24c-3.91-2.77-9.08-6.51-12.84-9.48
						l-8.13-7.2c-2.95-3.02-6.92-7.01-9.72-10.16l-7.06-8.75c-2.26-3.28-5.36-7.61-7.48-10.99l-5.65-9.99
						c-1.65-3.53-3.96-8.2-5.45-11.8L7.1,195.89c-1.04-3.76-2.55-8.74-3.43-12.54l-2.18-11.76c-0.67-6.53-1.34-15.27-1.54-21.84
						l0.52-12.25c0.48-3.92,1-9.16,1.66-13.05l2.48-11.65c1.11-3.72,2.47-8.71,3.74-12.38l4.27-10.82c1.7-3.48,3.87-8.17,5.71-11.58
						l5.85-9.77c2.27-3.22,5.23-7.56,7.64-10.68l7.13-8.44c2.88-2.95,6.68-6.92,9.69-9.73l7.89-6.74c3.64-2.71,8.52-6.31,12.29-8.83
						l7.61-4.59c10.09-5.31,10.49-5.52,16.62-8.07l5.5-2.13c9.88-3.36,16.92-5.57,31.41-7.76l3.9-0.47
						c1.14-0.11,2.67-0.27,3.81-0.36l3.49-0.25c1.03-0.05,2.39-0.13,3.42-0.16l3.29-0.08c0.98,0,2.28-0.02,3.25-0.01l3.25,0.06
						c0.98,0.04,2.28,0.08,3.26,0.13l3.36,0.21c1.03,0.09,2.4,0.19,3.43,0.29l3.65,0.4c1.14,0.15,2.65,0.34,3.79,0.51l4.15,0.67
						c1.33,0.25,3.1,0.57,4.42,0.85l4.96,1.12c1.66,0.44,3.89,0.99,5.54,1.46l6.17,1.9c2.28,0.81,5.33,1.87,7.59,2.75l7.65,3.26
						C215.87,15.29,220.54,17.62,223.97,19.5C202.81,7.48,177.48,2.24,150.25,5.9c-0.05,0.02-0.13,0.06-0.18,0.08
						C20.63,42.75,66.72,185.87,145.8,224.89c91,44.9,175.09-27.05,145.12-124.19C279.91,65.02,247,5.25,150.25,5.9
						C177.48,2.24,202.81,7.48,223.97,19.5"/>
					<path class="st3" d="M223.97,19.5c9.65,5.7,17.29,10.85,27.79,20.31l7.82,7.77c2.7,3.11,6.36,7.21,8.91,10.44l6.62,9.2
						c2.05,3.37,4.88,7.81,6.78,11.27l5.12,10.35c1.45,3.61,3.49,8.39,4.77,12.07l3.41,11.27c0.83,3.83,2.06,8.91,2.72,12.76
						l1.52,11.97c0.18,4,0.55,9.33,0.56,13.33l-0.52,12.25c-0.54,4.38-1.17,10.23-1.93,14.58l-2.6,11.6
						c-1.15,3.7-2.56,8.68-3.87,12.33l-4.38,10.77c-1.73,3.47-3.95,8.14-5.83,11.52l-5.94,9.7c-2.31,3.2-5.31,7.52-7.76,10.62
						l-7.19,8.34c-2.92,2.93-6.78,6.88-9.83,9.67l-7.91,6.62c-3.7,2.7-8.66,6.27-12.49,8.78l-7.54,4.44
						c-9.89,5.08-10.48,5.39-17,8.02l-5.44,2.03c-7.58,2.49-15.43,5.07-29.79,7.17l-3.9,0.47c-1.14,0.11-2.67,0.27-3.81,0.36
						l-3.49,0.25c-1.03,0.05-2.39,0.13-3.42,0.16l-3.29,0.08c-0.98,0-2.28,0.02-3.25,0.01l-3.25-0.06
						c-0.98-0.04-2.28-0.08-3.26-0.13l-3.36-0.21c-1.03-0.09-2.4-0.19-3.43-0.29l-3.65-0.4c-1.14-0.15-2.65-0.34-3.79-0.51
						l-4.15-0.67c-1.33-0.25-3.1-0.57-4.42-0.85l-4.96-1.12c-1.66-0.44-3.89-0.99-5.54-1.46l-6.17-1.9
						c-2.28-0.81-5.33-1.87-7.59-2.75l-7.65-3.26c-3.51-1.73-8.18-4.07-11.62-5.95l-8.54-5.24c-3.91-2.77-9.08-6.51-12.84-9.48
						l-8.13-7.2c-2.95-3.02-6.92-7.01-9.72-10.16l-7.06-8.75c-2.26-3.28-5.36-7.61-7.48-10.99l-5.65-9.99
						c-1.65-3.53-3.96-8.2-5.45-11.8L7.1,195.89c-1.04-3.76-2.55-8.74-3.43-12.54l-2.18-11.76c-0.67-6.53-1.34-15.27-1.54-21.84
						l0.52-12.25c0.48-3.92,1-9.16,1.66-13.05l2.48-11.65c1.11-3.72,2.47-8.71,3.74-12.38l4.27-10.82c1.7-3.48,3.87-8.17,5.71-11.58
						l5.85-9.77c2.27-3.22,5.23-7.56,7.64-10.68l7.13-8.44c2.88-2.95,6.68-6.92,9.69-9.73l7.89-6.74c3.64-2.71,8.52-6.31,12.29-8.83
						l7.61-4.59c10.09-5.31,10.49-5.52,16.62-8.07l5.5-2.13c9.88-3.36,16.92-5.57,31.41-7.76l3.9-0.47
						c1.14-0.11,2.67-0.27,3.81-0.36l3.49-0.25c1.03-0.05,2.39-0.13,3.42-0.16l3.29-0.08c0.98,0,2.28-0.02,3.25-0.01l3.25,0.06
						c0.98,0.04,2.28,0.08,3.26,0.13l3.36,0.21c1.03,0.09,2.4,0.19,3.43,0.29l3.65,0.4c1.14,0.15,2.65,0.34,3.79,0.51l4.15,0.67
						c1.33,0.25,3.1,0.57,4.42,0.85l4.96,1.12c1.66,0.44,3.89,0.99,5.54,1.46l6.17,1.9c2.28,0.81,5.33,1.87,7.59,2.75l7.65,3.26
						C215.87,15.29,220.54,17.62,223.97,19.5c-7.33-4.17-15.17-7.52-23.41-9.97c-0.26-0.09-0.61-0.2-0.88-0.29
						C89.63-21.39,31.49,85.93,82.67,173.03c57.46,97.77,190.91,93.15,213.12-7.38c14.1-63.84-28.62-133.87-95.23-156.11
						C208.8,11.98,216.64,15.34,223.97,19.5"/>
					<g>
						<path class="st4" d="M291.79,100.91c1.64,4.9,4.12,12.31,6.13,24.04l1.52,11.97c0.18,4,0.55,9.33,0.56,13.33l-0.52,12.25
							c-0.54,4.38-1.17,10.23-1.93,14.58l-2.6,11.6c-1.15,3.7-2.56,8.68-3.87,12.33l-4.38,10.77c-1.73,3.47-3.95,8.14-5.83,11.52
							l-5.94,9.7c-2.31,3.2-5.31,7.52-7.76,10.62l-7.19,8.34c-2.92,2.93-6.78,6.88-9.83,9.67l-7.91,6.62
							c-3.7,2.7-8.66,6.27-12.49,8.78l-7.54,4.44c-9.89,5.08-10.48,5.39-17,8.02l-5.44,2.03c-7.58,2.49-15.43,5.07-29.79,7.17
							l-3.9,0.47c-1.14,0.11-2.67,0.27-3.81,0.36l-3.49,0.25c-1.03,0.05-2.39,0.13-3.42,0.16l-3.29,0.08
							c-0.98,0-2.28,0.02-3.25,0.01l-3.25-0.06c-0.98-0.04-2.28-0.08-3.26-0.13l-3.36-0.21c-1.03-0.09-2.4-0.19-3.43-0.29l-3.65-0.4
							c-1.14-0.15-2.65-0.34-3.79-0.51l-4.15-0.67c-1.33-0.25-3.1-0.57-4.42-0.85l-4.96-1.12c-1.66-0.44-3.89-0.99-5.54-1.46
							l-6.17-1.9c-2.28-0.81-5.33-1.87-7.59-2.75l-7.65-3.26c-3.51-1.73-8.18-4.07-11.62-5.95l-8.54-5.24
							c-3.91-2.77-9.08-6.51-12.84-9.48l-8.13-7.2c-2.95-3.02-6.92-7.01-9.72-10.16l-7.06-8.75c-2.26-3.28-5.36-7.61-7.48-10.99
							l-5.65-9.99c-1.65-3.53-3.96-8.2-5.45-11.8L7.1,195.89c-1.04-3.76-2.55-8.74-3.43-12.54l-2.18-11.76
							c-0.67-6.53-1.34-15.27-1.54-21.84l0.52-12.25c0.48-3.92,1-9.16,1.66-13.05l2.48-11.65c1.11-3.72,2.47-8.71,3.74-12.38
							l4.27-10.82c1.7-3.48,3.87-8.17,5.71-11.58l5.85-9.77c2.27-3.22,5.23-7.56,7.64-10.68l7.13-8.44
							c2.88-2.95,6.68-6.92,9.69-9.73l7.89-6.74c3.64-2.71,8.52-6.31,12.29-8.83l7.61-4.59c10.09-5.31,10.49-5.52,16.62-8.07
							l5.5-2.13c9.88-3.36,16.92-5.57,31.41-7.76l3.9-0.47c1.14-0.11,2.67-0.27,3.81-0.36l3.49-0.25c1.03-0.05,2.39-0.13,3.42-0.16
							l3.29-0.08c0.98,0,2.28-0.02,3.25-0.01l3.25,0.06c0.98,0.04,2.28,0.08,3.26,0.13l3.36,0.21c1.03,0.09,2.4,0.19,3.43,0.29
							l3.65,0.4c1.14,0.15,2.65,0.34,3.79,0.51l4.15,0.67c1.33,0.25,3.1,0.57,4.42,0.85l4.96,1.12c1.66,0.44,3.89,0.99,5.54,1.46
							l6.17,1.9c2.28,0.81,5.33,1.87,7.59,2.75l7.65,3.26c3.51,1.73,8.18,4.06,11.62,5.95c-0.87-0.49-1.74-0.97-2.62-1.44
							c-2.69-1.33-6.28-3.11-8.97-4.44C105.7-32.75,29.76,63.59,67.82,156.43c46.12,112.48,184.82,118.76,221.68,34.26
							c17.08-39.17,7.58-76.31,0.39-94.96C290.46,97.28,291.27,99.34,291.79,100.91"/>
						<path class="st4" d="M223.97,19.5L223.97,19.5l7.5,4.56l-9.01-5.4c-0.33-0.18-0.78-0.42-1.11-0.6
							C222.24,18.53,223.11,19.01,223.97,19.5"/>
					</g>
					<path class="st5" d="M297.93,124.94c1.06,7.14,2.06,13.88,2.08,25.31l-0.52,12.25c-0.54,4.38-1.17,10.23-1.93,14.58l-2.6,11.6
						c-1.15,3.7-2.56,8.68-3.87,12.33l-4.38,10.77c-1.73,3.47-3.95,8.14-5.83,11.52l-5.94,9.7c-2.31,3.2-5.31,7.52-7.76,10.62
						l-7.19,8.34c-2.92,2.93-6.78,6.88-9.83,9.67l-7.91,6.62c-3.7,2.7-8.66,6.27-12.49,8.78l-7.54,4.44
						c-9.89,5.08-10.48,5.39-17,8.02l-5.44,2.03c-7.58,2.49-15.43,5.07-29.79,7.17l-3.9,0.47c-1.14,0.11-2.67,0.27-3.81,0.36
						l-3.49,0.25c-1.03,0.05-2.39,0.13-3.42,0.16l-3.29,0.08c-0.98,0-2.28,0.02-3.25,0.01l-3.25-0.06
						c-0.98-0.04-2.28-0.08-3.26-0.13l-3.36-0.21c-1.03-0.09-2.4-0.19-3.43-0.29l-3.65-0.4c-1.14-0.15-2.65-0.34-3.79-0.51
						l-4.15-0.67c-1.33-0.25-3.1-0.57-4.42-0.85l-4.96-1.12c-1.66-0.44-3.89-0.99-5.54-1.46l-6.17-1.9
						c-2.28-0.81-5.33-1.87-7.59-2.75l-7.65-3.26c-3.51-1.73-8.18-4.07-11.62-5.95l-8.54-5.24c-3.91-2.77-9.08-6.51-12.84-9.48
						l-8.13-7.2c-2.95-3.02-6.92-7.01-9.72-10.16l-7.06-8.75c-2.26-3.28-5.36-7.61-7.48-10.99l-5.65-9.99
						c-1.65-3.53-3.96-8.2-5.45-11.8L7.1,195.89c-1.04-3.76-2.55-8.74-3.43-12.54l-2.18-11.76c-0.67-6.53-1.34-15.27-1.54-21.84
						l0.52-12.25c0.48-3.92,1-9.16,1.66-13.05l2.48-11.65c1.11-3.72,2.47-8.71,3.74-12.38l4.27-10.82c1.7-3.48,3.87-8.17,5.71-11.58
						l5.85-9.77c2.27-3.22,5.23-7.56,7.64-10.68l7.13-8.44c2.88-2.95,6.68-6.92,9.69-9.73l7.89-6.74c3.64-2.71,8.52-6.31,12.29-8.83
						l7.61-4.59c10.09-5.31,10.49-5.52,16.62-8.07l5.5-2.13c9.88-3.36,16.92-5.57,31.41-7.76l3.9-0.47
						c1.14-0.11,2.67-0.27,3.81-0.36l3.49-0.25c1.03-0.05,2.39-0.13,3.42-0.16l3.29-0.08c0.98,0,2.28-0.02,3.25-0.01l3.25,0.06
						c0.98,0.04,2.28,0.08,3.26,0.13l3.36,0.21c1.03,0.09,2.4,0.19,3.43,0.29l3.65,0.4c1.14,0.15,2.65,0.34,3.79,0.51l4.15,0.67
						c1.33,0.25,3.1,0.57,4.42,0.85l4.96,1.12c1.66,0.44,3.89,0.99,5.54,1.46l6.17,1.9l3.62,1.25l-7.86-2.57
						C81.6-25.37,19.96,85.56,70.03,175.53c59.46,106.84,195.73,97.28,223.82,8.83c8.16-25.69,6.18-46.54,3.98-59.99
						C297.85,124.55,297.9,124.77,297.93,124.94"/>
					<path class="st6" d="M300.01,150.25c-0.16,7.73-0.29,14.41-2.45,26.83l-2.6,11.6c-1.15,3.7-2.56,8.68-3.87,12.33l-4.38,10.77
						c-1.73,3.47-3.95,8.14-5.83,11.52l-5.94,9.7c-2.31,3.2-5.31,7.52-7.76,10.62l-7.19,8.34c-2.92,2.93-6.78,6.88-9.83,9.67
						l-7.91,6.62c-3.7,2.7-8.66,6.27-12.49,8.78l-7.54,4.44c-9.89,5.08-10.48,5.39-17,8.02l-5.44,2.03
						c-7.58,2.49-15.43,5.07-29.79,7.17l-3.9,0.47c-1.14,0.11-2.67,0.27-3.81,0.36l-3.49,0.25c-1.03,0.05-2.39,0.13-3.42,0.16
						l-3.29,0.08c-0.98,0-2.28,0.02-3.25,0.01l-3.25-0.06c-0.98-0.04-2.28-0.08-3.26-0.13l-3.36-0.21c-1.03-0.09-2.4-0.19-3.43-0.29
						l-3.65-0.4c-1.14-0.15-2.65-0.34-3.79-0.51l-4.15-0.67c-1.33-0.25-3.1-0.57-4.42-0.85l-4.96-1.12
						c-1.66-0.44-3.89-0.99-5.54-1.46l-6.17-1.9c-2.28-0.81-5.33-1.87-7.59-2.75l-7.65-3.26c-3.51-1.73-8.18-4.07-11.62-5.95
						l-8.54-5.24c-3.91-2.77-9.08-6.51-12.84-9.48l-8.13-7.2c-2.95-3.02-6.92-7.01-9.72-10.16l-7.06-8.75
						c-2.26-3.28-5.36-7.61-7.48-10.99l-5.65-9.99c-1.65-3.53-3.96-8.2-5.45-11.8L7.1,195.89c-1.04-3.76-2.55-8.74-3.43-12.54
						l-2.18-11.76c-0.67-6.53-1.34-15.27-1.54-21.84l0.52-12.25c0.48-3.92,1-9.16,1.66-13.05l2.48-11.65
						c1.11-3.72,2.47-8.71,3.74-12.38l4.27-10.82c1.7-3.48,3.87-8.17,5.71-11.58l5.85-9.77c2.27-3.22,5.23-7.56,7.64-10.68
						l7.13-8.44c2.88-2.95,6.68-6.92,9.69-9.73l7.89-6.74c3.64-2.71,8.52-6.31,12.29-8.83l7.61-4.59
						c10.09-5.31,10.49-5.52,16.62-8.07l5.5-2.13c9.88-3.36,16.92-5.57,31.41-7.76l3.9-0.47c1.14-0.11,2.67-0.27,3.81-0.36
						l3.49-0.25c1.03-0.05,2.39-0.13,3.42-0.16l3.29-0.08c0.98,0,2.28-0.02,3.25-0.01l3.25,0.06c0.98,0.04,2.28,0.08,3.26,0.13
						l3.36,0.21c1.03,0.09,2.4,0.19,3.43,0.29l3.65,0.4c1.14,0.15,2.65,0.34,3.79,0.51l4.15,0.67l1.13,0.2l-1.2-0.22
						C57.62-16.23,10.97,114.36,77.68,200.05c71.71,92.11,208.1,72.05,221.11-32.53c1.23-9.86,1.22-14.57,1.22-18.37
						C299.99,149.48,300.01,149.92,300.01,150.25"/>
					<path class="st7" d="M297.56,177.08c-0.99,5.08-2.47,12.77-6.47,23.94l-4.38,10.77c-1.73,3.47-3.95,8.14-5.83,11.52l-5.94,9.7
						c-2.31,3.2-5.31,7.52-7.76,10.62l-7.19,8.34c-2.92,2.93-6.78,6.88-9.83,9.67l-7.91,6.62c-3.7,2.7-8.66,6.27-12.49,8.78
						l-7.54,4.44c-9.89,5.08-10.48,5.39-17,8.02l-5.44,2.03c-7.58,2.49-15.43,5.07-29.79,7.17l-3.9,0.47
						c-1.14,0.11-2.67,0.27-3.81,0.36l-3.49,0.25c-1.03,0.05-2.39,0.13-3.42,0.16l-3.29,0.08c-0.98,0-2.28,0.02-3.25,0.01
						l-3.25-0.06c-0.98-0.04-2.28-0.08-3.26-0.13l-3.36-0.21c-1.03-0.09-2.4-0.19-3.43-0.29l-3.65-0.4
						c-1.14-0.15-2.65-0.34-3.79-0.51l-4.15-0.67c-1.33-0.25-3.1-0.57-4.42-0.85l-4.96-1.12c-1.66-0.44-3.89-0.99-5.54-1.46
						l-6.17-1.9c-2.28-0.81-5.33-1.87-7.59-2.75l-7.65-3.26c-3.51-1.73-8.18-4.07-11.62-5.95l-8.54-5.24
						c-3.91-2.77-9.08-6.51-12.84-9.48l-8.13-7.2c-2.95-3.02-6.92-7.01-9.72-10.16l-7.06-8.75c-2.26-3.28-5.36-7.61-7.48-10.99
						l-5.65-9.99c-1.65-3.53-3.96-8.2-5.45-11.8L7.1,195.89c-1.04-3.76-2.55-8.74-3.43-12.54l-2.18-11.76
						c-0.67-6.53-1.34-15.27-1.54-21.84l0.52-12.25c0.48-3.92,1-9.16,1.66-13.05l2.48-11.65c1.11-3.72,2.47-8.71,3.74-12.38
						l4.27-10.82c1.7-3.48,3.87-8.17,5.71-11.58l5.85-9.77c2.27-3.22,5.23-7.56,7.64-10.68l7.13-8.44c2.88-2.95,6.68-6.92,9.69-9.73
						l7.89-6.74c3.64-2.71,8.52-6.31,12.29-8.83l7.61-4.59c10.09-5.31,10.49-5.52,16.62-8.07l5.5-2.13
						c9.88-3.36,16.92-5.57,31.41-7.76l3.9-0.47c1.14-0.11,2.67-0.27,3.81-0.36l3.49-0.25c1.03-0.05,2.39-0.13,3.42-0.16l3.29-0.08
						c0.98,0,2.28-0.02,3.25-0.01c0.83,0.01,1.93,0.03,2.75,0.05c-0.75-0.01-1.75-0.03-2.5-0.04C39.86,0.5,0.97,135.04,87.37,221.44
						c70.67,70.67,190.2,58.78,211.07-49.73C298.18,173.32,297.87,175.47,297.56,177.08"/>
					<path class="st8" d="M291.1,201.01c-1.64,4.42-4.39,11.82-10.21,22.29l-5.94,9.7c-2.31,3.2-5.31,7.52-7.76,10.62l-7.19,8.34
						c-2.92,2.93-6.78,6.88-9.83,9.67l-7.91,6.62c-3.7,2.7-8.66,6.27-12.49,8.78l-7.54,4.44c-9.89,5.08-10.48,5.39-17,8.02
						l-5.44,2.03c-7.58,2.49-15.43,5.07-29.79,7.17l-3.9,0.47c-1.14,0.11-2.67,0.27-3.81,0.36l-3.49,0.25
						c-1.03,0.05-2.39,0.13-3.42,0.16l-3.29,0.08c-0.98,0-2.28,0.02-3.25,0.01l-3.25-0.06c-0.98-0.04-2.28-0.08-3.26-0.13
						l-3.36-0.21c-1.03-0.09-2.4-0.19-3.43-0.29l-3.65-0.4c-1.14-0.15-2.65-0.34-3.79-0.51l-4.15-0.67
						c-1.33-0.25-3.1-0.57-4.42-0.85l-4.96-1.12c-1.66-0.44-3.89-0.99-5.54-1.46l-6.17-1.9c-2.28-0.81-5.33-1.87-7.59-2.75
						l-7.65-3.26c-3.51-1.73-8.18-4.07-11.62-5.95l-8.54-5.24c-3.91-2.77-9.08-6.51-12.84-9.48l-8.13-7.2
						c-2.95-3.02-6.92-7.01-9.72-10.16l-7.06-8.75c-2.26-3.28-5.36-7.61-7.48-10.99l-5.65-9.99c-1.65-3.53-3.96-8.2-5.45-11.8
						L7.1,195.89c-1.04-3.76-2.55-8.74-3.43-12.54l-2.18-11.76c-0.67-6.53-1.34-15.27-1.54-21.84l0.52-12.25
						c0.48-3.92,1-9.16,1.66-13.05l2.48-11.65c1.11-3.72,2.47-8.71,3.74-12.38l4.27-10.82c1.7-3.48,3.87-8.17,5.71-11.58l5.85-9.77
						c2.27-3.22,5.23-7.56,7.64-10.68l7.13-8.44c2.88-2.95,6.68-6.92,9.69-9.73l7.89-6.74c3.64-2.71,8.52-6.31,12.29-8.83l7.61-4.59
						c10.09-5.31,10.49-5.52,16.62-8.07l5.5-2.13c8.07-2.75,15.69-5.34,30.57-7.64l-2.32,0.35C12.22,21.66-1.81,171.63,104.06,244.9
						c74.07,51.26,164.2,27.43,189.1-49.99C292.54,196.74,291.77,199.2,291.1,201.01"/>
					<path class="st9" d="M280.89,223.3c-3.05,5.26-6.52,11.22-13.7,20.31l-7.19,8.34c-2.92,2.93-6.78,6.88-9.83,9.67l-7.91,6.62
						c-3.7,2.7-8.66,6.27-12.49,8.78l-7.54,4.44c-9.89,5.08-10.48,5.39-17,8.02l-5.44,2.03c-7.58,2.49-15.43,5.07-29.79,7.17
						l-3.9,0.47c-1.14,0.11-2.67,0.27-3.81,0.36l-3.49,0.25c-1.03,0.05-2.39,0.13-3.42,0.16l-3.29,0.08c-0.98,0-2.28,0.02-3.25,0.01
						l-3.25-0.06c-0.98-0.04-2.28-0.08-3.26-0.13l-3.36-0.21c-1.03-0.09-2.4-0.19-3.43-0.29l-3.65-0.4
						c-1.14-0.15-2.65-0.34-3.79-0.51l-4.15-0.67c-1.33-0.25-3.1-0.57-4.42-0.85l-4.96-1.12c-1.66-0.44-3.89-0.99-5.54-1.46
						l-6.17-1.9c-2.28-0.81-5.33-1.87-7.59-2.75l-7.65-3.26c-3.51-1.73-8.18-4.07-11.62-5.95l-8.54-5.24
						c-3.91-2.77-9.08-6.51-12.84-9.48l-8.13-7.2c-2.95-3.02-6.92-7.01-9.72-10.16l-7.06-8.75c-2.26-3.28-5.36-7.61-7.48-10.99
						l-5.65-9.99c-1.65-3.53-3.96-8.2-5.45-11.8L7.1,195.89c-1.04-3.76-2.55-8.74-3.43-12.54l-2.18-11.76
						c-0.67-6.53-1.34-15.27-1.54-21.84l0.52-12.25c0.48-3.92,1-9.16,1.66-13.05l2.48-11.65c1.11-3.72,2.47-8.71,3.74-12.38
						l4.27-10.82c1.7-3.48,3.87-8.17,5.71-11.58l5.85-9.77c2.27-3.22,5.23-7.56,7.64-10.68l7.13-8.44c2.88-2.95,6.68-6.92,9.69-9.73
						l7.89-6.74c3.64-2.71,8.52-6.31,12.29-8.83l7.61-4.59c10.09-5.31,10.49-5.52,16.62-8.07l5.5-2.13c2.3-0.78,5.36-1.83,7.67-2.55
						l-0.18,0.05C-6.39,42.13-2.08,201.48,112.93,261.04c78.41,40.61,142.7,7.68,169.25-40.1
						C281.8,221.65,281.29,222.6,280.89,223.3"/>
					<path class="st10" d="M216.38,17.48c94.2,44.37,107.81,175.16,21.73,208.88C147.83,261.73,44.34,154.2,82.16,64.3
						C106.34,6.81,169.39-4.65,216.38,17.48"/>
					<path class="st11" d="M229.23,25.3c90.73,55.22,86.29,182.73-6.99,200.64C123.82,244.83,40.55,122.78,98.49,44.56
						C131.62-0.16,189.34,1.02,229.23,25.3"/>
					<path class="st12" d="M240.9,34.41c81.74,62.89,59.03,171.26-17.84,186.34C137.57,237.51,47.3,131.32,102.3,47.07
						C126.79,9.54,188.34-4.5,240.9,34.41"/>
					<path class="st13" d="M251.3,44.74c74.2,71.16,33.65,172.62-46.3,172.6C111.19,217.3,52.99,99.7,116.06,37.57
						C154.98-0.79,216.57,11.43,251.3,44.74"/>
					<path class="st14" d="M250.91,46.42c67.29,62.97,39.23,165.22-45.5,165.76C114.08,212.77,60,100.69,121.54,38.37
						C153.53,5.99,211.56,9.6,250.91,46.42"/>
					<path class="st15" d="M259.46,57.96c55,67.47,16.26,156.07-64.78,148.13c-94.1-9.22-123.14-124.35-62.57-170.86
						C173.45,3.49,230.4,22.32,259.46,57.96"/>
					<path class="st16" d="M258.29,59.64c54.73,67.59,9.56,155.89-72.13,141.01C98.11,184.61,80.44,76.7,140.42,34.74
						C174.82,10.68,227.69,21.85,258.29,59.64"/>
					<path class="st17" d="M264.69,72.39c43.06,71.15-11.59,136.53-78.45,123.86C97.3,179.39,90.25,76.72,141.09,40.01
						C188.31,5.91,243.21,36.91,264.69,72.39"/>
					<path class="st18" d="M262.68,74.1c40.05,67.31-12.9,129.47-76.41,117.67c-82.73-15.37-95.01-108.19-38-151
						C178.5,18.07,235.06,27.68,262.68,74.1"/>
					<path class="st19" d="M260.23,75.86c36.03,61.98-14.07,120.76-73.95,112.34c-75.03-10.56-89.59-102.71-38.22-141.01
						C190.95,15.21,241.61,43.84,260.23,75.86"/>
					<path class="st20" d="M263.29,89.85c24.33,64.78-42.09,113.15-97.3,89.1c-65.47-28.52-55.2-114.28,1.31-137.07
						C202.74,27.59,248.49,50.45,263.29,89.85"/>
					<path class="st21" d="M259.68,91.66c20.12,58.05-36.82,109.18-93.72,84.18c-61.84-27.17-51.33-106.68,2.58-128.92
						C206.41,31.3,247.9,57.66,259.68,91.66"/>
					<path class="st22" d="M255.54,93.48c19.19,57.59-41.51,100.91-89.61,79.69c-58.38-25.75-47.27-101.79,4.14-121.63
						C207.4,37.14,245.08,62.09,255.54,93.48"/>
					<path class="st23" d="M251.09,95.2c18.18,54.58-39.52,95.49-85.19,75.31c-50.42-22.28-47.07-93.94,5.34-114.45
						C195.92,46.4,238.24,56.62,251.09,95.2"/>
					<path class="st24" d="M249.31,110.1c2.83,40.76-25.55,53.9-34.87,58.22c-32.4,15-56.38-5.56-64.26-12.32
						c-37.24-31.94-16.72-91.49,33.77-98.03C218.97,53.43,247.34,81.75,249.31,110.1"/>
					<path class="st25" d="M245.02,111.35c3.76,29.32-20.44,48.45-20.69,48.61c-15.62,9.92-16.05,9.94-38.33,11.19
						c-0.11,0.01-17.93-4.08-22.98-7.74c-56.47-40.91-19.91-90.51,10.07-99.63C202.39,54.86,240.19,73.7,245.02,111.35"/>
					<path class="st26" d="M241.56,112.27c4.33,38.98-41.67,77.47-84.93,43.3c-44.24-34.94-10.74-90.17,30.06-90.09
						C204.01,65.52,237.89,79.28,241.56,112.27"/>
					<path class="st27" d="M237.97,113.16c1.26,13.41-1.28,37.86-32.47,51.04c-9.21,3.89-34.43,5.43-53.64-14.65
						c-27.35-28.61-10.37-81.41,36.1-80.29C216.45,69.95,236.29,95.3,237.97,113.16"/>
					<path class="st28" d="M234.25,114.02c4.91,50.82-53.59,62.6-79.67,35.52c-32.05-33.29-4.31-80.56,34.32-77.39
						C220.36,74.74,233.04,101.48,234.25,114.02"/>
					<path class="st29" d="M231.47,114.62c3.84,25.74-12.17,35.8-26.3,44.67c-1.99,1.25-19.7,7.13-39.55-3.31
						c-2.73-1.44-26.59-14.98-22.6-47.18c0.94-7.54,12-28.5,32.57-33.23C192.66,71.64,226.83,83.49,231.47,114.62"/>
					<path class="st30" d="M228.99,129.07c-0.02,0.09-5.9,13.26-7.69,15.36c-4.02,4.7-11.26,9.04-16.29,12.65
						c-4.8,3.44-13.55,2.66-19.43,3.15c-1.83,0.15-25.43-3.48-36.54-24.5c-13.83-26.17,7.18-62.76,41.61-57.93
						C214.55,81.15,234.26,107.5,228.99,129.07"/>
					<path class="st31" d="M226.28,129.56c-6.91,25.98-31.53,28-40.8,28.76c-6.3,0.52-14.68-3.3-19.96-6.77
						c-4.71-3.1-14.31-15.72-14.37-15.82c-12.88-23.39,3.94-60.8,40.33-55.06c1.5,0.24,17.56,7.56,17.64,7.62
						c3.49,2.48,6.25,4.45,13.36,14.43C229.35,112.36,226.32,129.41,226.28,129.56"/>
					<path class="st32" d="M223.52,130.05c-3.34,11.87-13.84,19.13-18.88,22.62c-4.84,3.35-13.39,3.28-19.26,3.76
						c-6.32,0.51-14.58-3.64-19.9-7.07c-4.61-2.97-9.47-8.87-12.21-13.63c-3.51-6.09-10.28-22.14,2.79-39.77
						c11.03-14.88,29.83-14.26,36.15-12.76c5.65,1.34,12.67,5.09,17.38,8.48c1.02,0.73,10.27,11.43,10.33,11.51
						C227.54,114.62,223.95,128.5,223.52,130.05"/>
					<path class="st33" d="M220.7,130.51c-0.03,0.11-4.08,11.69-16.27,19.96c-4.86,3.3-13.3,3.59-19.16,4.06
						c-0.07,0.01-14.59-4.36-19.89-7.7c-3.8-2.39-7.73-7.25-10-11.12c-11.65-19.83-0.4-34.86,3.3-39.79
						c4.73-6.32,15.5-9.95,18.69-10.91c4.46-1.34,10.98-0.51,15.5,0.62C193.25,85.72,230.41,97.82,220.7,130.51"/>
					<path class="st34" d="M218.92,123.7c-0.21,2.16,0.26,5.29-0.77,7.21c-2.74,5.09-7.06,11.74-11.45,15.51
						c-2.5,2.14-2.95,2.53-21.54,6.22c-0.15,0.03-19-2.8-27.51-16.78c-11.81-19.4-0.97-33.83,3.65-39.99
						c2.77-3.68,16.31-8.76,16.43-8.79c4.61-1.11,11.2-0.2,15.79,1c10.42,2.73,20.97,15.89,21.07,16.02
						C220.09,111.82,219.5,117.86,218.92,123.7"/>
					<path class="st35" d="M215.61,131.29c-2.15,5.19-6.89,11.65-11.63,14.67c-0.89,0.56-16.99,4.63-18.93,4.78
						c-0.15,0.01-18.7-4.12-25.43-15.08c-11.68-19.02-0.74-33.29,3.37-38.67c0.44-0.58,13.98-7.61,15.09-7.84
						c4.74-0.98,11.41,0.11,16.08,1.4C203.57,93.16,223.7,111.76,215.61,131.29"/>
					<path class="st36" d="M213.03,131.66c-1.79,4.12-5.5,9.36-9.34,11.71c-0.99,0.61-18.01,5.58-18.77,5.49
						c-1.09-0.13-19.7-9.43-19.79-9.51c-3.69-3.22-5.84-9.86-7.63-14.42c-3.8-9.72,1.76-21.55,5.68-24.9
						c2.71-2.32,13.11-8.31,15.24-8.78c4.82-1.06,11.62,0.42,16.36,1.8c1.47,0.43,14.78,11.73,14.82,11.82
						c1.77,3.74,4.71,8.65,5.24,12.75C215.38,121.82,214.73,127.76,213.03,131.66"/>
					<path class="st37" d="M210.42,132.01c-1.37,3.01-4.02,6.97-6.9,8.62c-5.13,2.94-12.93,7.19-18.74,6.08
						c-6.5-1.24-14.9-5.34-19.74-9.85c-3.04-2.83-6.67-14.68-6.68-14.78c-0.02-0.14-0.15-15.34,5.02-19
						c0.53-0.38,13.03-9.2,15.39-9.74c4.94-1.12,12.08,0.39,16.69,2.49c4.08,1.85,8.87,5.84,11.62,9.38
						c2.55,3.29,3.91,8.88,5.5,12.73C214.21,121.89,212.18,128.12,210.42,132.01"/>
					<path class="st38" d="M207.79,132.35c-0.95,2.04-2.71,4.8-4.7,5.85c-5.18,2.72-12.74,7.55-18.46,6.31
						c-5.87-1.27-13.45-4.95-17.86-9.02c-3.44-3.17-6.45-13.34-6.46-13.43c-0.01-0.1-0.19-11,3.27-15.88
						c3.27-4.61,10.01-9.47,15.54-10.65c5.08-1.09,12.19,1.31,17.03,3.22c3.01,1.19,6.38,4.26,8.37,6.82
						c2.57,3.3,5.25,8.55,5.76,12.71C210.79,122.53,209.6,128.46,207.79,132.35"/>
					<path class="st39" d="M205.14,132.67c-0.49,1.03-1.35,2.47-2.38,2.96c-5.29,2.47-12.46,7.04-18.29,6.68
						c-4.65-0.29-10.13-4.2-13.89-6.96c-2.31-1.7-4.42-5.07-5.89-7.54c-5.46-9.2-0.25-19.05-0.19-19.14
						c3.34-4.41,9.58-9.59,14.99-10.74c5.2-1.1,12.31,1.96,17.32,3.74c1.88,0.67,3.95,2.61,5.13,4.22c2.5,3.39,5.51,8.51,6.01,12.7
						C208.46,122.86,207.01,128.79,205.14,132.67"/>
					<path class="st40" d="M202.48,132.97c-3.83,4.44-12.34,7.43-18.19,7.13c-3.32-0.17-7.43-2.72-9.92-4.92
						c-3.61-3.19-7.77-8.3-9.92-12.6c-0.98-1.96,4.02-13.96,4.09-14.05c2.48-3.37,7.2-7.35,11.31-8.18
						c5.33-1.07,12.4,2.71,17.6,4.27c0.71,0.21,1.48,0.97,1.9,1.57c2.42,3.49,5.76,8.47,6.26,12.69
						C206.11,123.18,204.41,129.09,202.48,132.97"/>
					<path class="st41" d="M201.54,127.04c-4.68,8.81-17.31,10.87-17.42,10.87c-1.99-0.11-4.53-1.54-5.95-2.93
						c-3.62-3.52-9.75-8.14-10.54-13.13c-0.67-4.26,2.57-9.9,4.95-13.5c1.56-2.36,4.84-5.05,7.62-5.57
						c4.52-0.84,10.52,2.27,14.84,3.88c1.27,0.47,2.54,1.92,3.44,2.93C201.98,113.59,204.03,122.35,201.54,127.04"/>
					<path class="st42" d="M200.56,120.97c-2.59,4.95-8.76,9.68-12.94,13.39c-0.88,0.78-2.51,1.42-3.69,1.36
						c-2.97-0.15-12.63-13.88-12.65-14.01c-0.65-4.33,3.19-9.76,5.33-13.57c0.72-1.28,2.49-2.63,3.93-2.9
						c2.34-0.44,5.8,0.59,7.68,2.07c3.68,2.89,8.62,6.78,11.75,10.25C200.66,118.33,201.04,120.05,200.56,120.97"/>
					<path class="st43" d="M183.6,131.99c-4.07-0.22-8.1-6.41-8.68-10.45c-0.02-0.12,5.5-13.75,5.95-13.83
						c0.14-0.03,0.36,0.04,0.47,0.13c4.32,3.6,13.98,6.54,14.26,12.16C195.85,125.08,188.68,132.27,183.6,131.99"/>
					<path class="st44" d="M183.09,126.74c-2.11-0.1-4.22-3.31-4.53-5.4c-0.36-2.38,0.76-6.85,3.11-7.4
						c2.96-0.69,7.58,3.59,7.68,6.63C189.43,123.2,185.72,126.86,183.09,126.74"/>
					<path class="st45" d="M182.54,121.53c-0.17-0.01-0.33-0.26-0.36-0.42c-0.03-0.19,0.06-0.54,0.25-0.59
						c0.23-0.05,0.6,0.29,0.6,0.53C183.04,121.26,182.75,121.54,182.54,121.53"/>
				</g>
			</g>
		</g>
	</g>
</g>
<g>
	<path d="M103.14,115.72c-1.13,4.88-2.35,9.47-3.66,13.78c1.5,1.13,1.5,1.97,0,2.53v27.56c4.12-2.81,8.06-6.93,11.81-12.38
		c3.38-5.06,5.63-9.75,6.75-14.06h-16.03v-7.31h17.72V111.5h6.75c2.25,0.19,2.62,0.94,1.13,2.25v12.09h19.69v7.31h-18.56
		c0.18,2.44,1.31,5.25,3.38,8.44c4.31,6.38,10.31,12.56,18,18.56l-5.63,6.75c-2.63-1.87-5.44-4.5-8.44-7.88
		c-3.75-4.12-6.57-8.06-8.44-11.81v30.38h-7.88v-29.81c-1.69,3.38-4.5,7.31-8.44,11.81c-3,3.38-5.63,5.91-7.88,7.59l-3.94-4.22
		v14.63h-7.88v-34.03c-1.5,2.07-3,3.94-4.5,5.63L82.05,143c1.13-1.31,2.25-2.72,3.38-4.22c4.5-5.81,7.88-15,10.13-27.56l7.03,1.97
		C105.02,113.94,105.21,114.78,103.14,115.72z"/>
	<path d="M163.33,176.75l-7.03-4.78c3.38-4.68,6-9.37,7.88-14.06l7.59,3.38C169.14,167.47,166.33,172.62,163.33,176.75z
		 M187.8,116.84c0.94,2.63,0.18,3.47-2.25,2.53l-8.72,1.69V125h11.25v6.75h-11.25v3.09h8.72v20.25h-7.31v-0.84h-10.13v2.25h-7.31
		v-21.66h8.72v-3.09h-12.66V125h12.66v-2.81c-2.81,0.38-6.47,0.66-10.97,0.84l-1.41-7.59c3.38,0,7.12-0.18,11.25-0.56
		c6.93-0.75,12.66-1.97,17.16-3.66L187.8,116.84z M168.11,141.59v5.91h10.13v-5.91H168.11z M180.49,158.75v9.28
		c0,0.56,0.09,1.03,0.28,1.41c0.18,0.38,0.65,0.56,1.41,0.56h13.78c1.5,0,2.43-0.94,2.81-2.81l0.56-3.66l8.16,1.97l-1.13,6.19
		c-0.38,1.69-1.13,3-2.25,3.94c-0.94,0.75-1.88,1.13-2.81,1.13h-22.5c-3.75-0.19-5.63-2.16-5.63-5.91V156.5h6.19
		C181.61,156.69,181.99,157.44,180.49,158.75z M189.49,156.5v-37.97h8.72c0.75-2.25,1.5-4.5,2.25-6.75l5.91,1.13
		c0.37,0,0.75,0.1,1.13,0.28c1.13,0.56,1.59,1.13,1.41,1.69c-0.19,0.38-0.66,0.66-1.41,0.84c-0.56,0.94-1.03,1.88-1.41,2.81h11.53
		v38.53h-7.31v-0.84h-13.5v1.13h-6.47c0.94,1.13,2.25,3,3.94,5.63l-6.47,4.5c-1.88-3.19-3.94-6.19-6.19-9l5.91-4.22
		C188.08,155,188.74,155.75,189.49,156.5z M196.8,125.28v3.38h13.5v-3.38H196.8z M196.8,135.4v3.38h13.5v-3.38H196.8z M196.8,145.53
		v3.94h13.5v-3.94H196.8z M209.17,157.06c4.12,3,8.25,6.85,12.38,11.53l-7.31,5.06c-2.63-3.94-6.19-8.25-10.69-12.94L209.17,157.06z
		"/>
</g>
<g>
</g>
<g>
</g>
<g>
</g>
<g>
</g>
<g>
</g>
<g>
</g>
</svg>
