<?xml version="1.0" encoding="utf-8"?>
<!-- Generator: Adobe Illustrator 24.0.1, SVG Export Plug-In . SVG Version: 6.00 Build 0)  -->
<svg version="1.1" id="レイヤー_1" xmlns="http://www.w3.org/2000/svg" xmlns:xlink="http://www.w3.org/1999/xlink" x="0px"
	 y="0px" viewBox="0 0 300 300" style="enable-background:new 0 0 300 300;" xml:space="preserve">
<style type="text/css">
	.st0{fill:#999999;}
	.st1{fill:#4D4D4D;}
</style>
<g>
	<rect x="0" class="st0" width="300" height="300"/>
	<path d="M300,0h-3v1h3V0L300,0z M294,0h-3v1h3V0L294,0z M288,0h-3v1h3V0L288,0z M282,0h-3v1h3V0L282,0z M276,0h-3v1h3V0L276,0z
		 M270,0h-3v1h3V0L270,0z M264,0h-3v1h3V0L264,0z M258,0h-3v1h3V0L258,0z M252,0h-3v1h3V0L252,0z M246,0h-3v1h3V0L246,0z M240,0h-3
		v1h3V0L240,0z M234,0h-3v1h3V0L234,0z M228,0h-3v1h3V0L228,0z M222,0h-3v1h3V0L222,0z M216,0h-3v1h3V0L216,0z M210,0h-3v1h3V0
		L210,0z M204,0h-3v1h3V0L204,0z M198,0h-3v1h3V0L198,0z M192,0h-3v1h3V0L192,0z M186,0h-3v1h3V0L186,0z M180,0h-3v1h3V0L180,0z
		 M174,0h-3v1h3V0L174,0z M168,0h-3v1h3V0L168,0z M162,0h-3v1h3V0L162,0z M156,0h-3v1h3V0L156,0z M150,0h-3v1h3V0L150,0z M144,0h-3
		v1h3V0L144,0z M138,0h-3v1h3V0L138,0z M132,0h-3v1h3V0L132,0z M126,0h-3v1h3V0L126,0z M120,0h-3v1h3V0L120,0z M114,0h-3v1h3V0
		L114,0z M108,0h-3v1h3V0L108,0z M102,0h-3v1h3V0L102,0z M96,0h-3v1h3V0L96,0z M90,0h-3v1h3V0L90,0z M84,0h-3v1h3V0L84,0z M78,0h-3
		v1h3V0L78,0z M72,0h-3v1h3V0L72,0z M66,0h-3v1h3V0L66,0z M60,0h-3v1h3V0L60,0z M54,0h-3v1h3V0L54,0z M48,0h-3v1h3V0L48,0z M42,0h-3
		v1h3V0L42,0z M36,0h-3v1h3V0L36,0z M30,0h-3v1h3V0L30,0z M24,0h-3v1h3V0L24,0z M18,0h-3v1h3V0L18,0z M12,0H9v1h3V0L12,0z M6,0H3v1
		h3V0L6,0z M1,0H0v3h1V0L1,0z M1,6H0v3h1V6L1,6z M1,12H0v3h1V12L1,12z M1,18H0v3h1V18L1,18z M1,24H0v3h1V24L1,24z M1,30H0v3h1V30
		L1,30z M1,36H0v3h1V36L1,36z M1,42H0v3h1V42L1,42z M1,48H0v3h1V48L1,48z M1,54H0v3h1V54L1,54z M1,60H0v3h1V60L1,60z M1,66H0v3h1V66
		L1,66z M1,72H0v3h1V72L1,72z M1,78H0v3h1V78L1,78z M1,84H0v3h1V84L1,84z M1,90H0v3h1V90L1,90z M1,96H0v3h1V96L1,96z M1,102H0v3h1
		V102L1,102z M1,108H0v3h1V108L1,108z M1,114H0v3h1V114L1,114z M1,120H0v3h1V120L1,120z M1,126H0v3h1V126L1,126z M1,132H0v3h1V132
		L1,132z M1,138H0v3h1V138L1,138z M1,144H0v3h1V144L1,144z M1,150H0v3h1V150L1,150z M1,156H0v3h1V156L1,156z M1,162H0v3h1V162L1,162
		z M1,168H0v3h1V168L1,168z M1,174H0v3h1V174L1,174z M1,180H0v3h1V180L1,180z M1,186H0v3h1V186L1,186z M1,192H0v3h1V192L1,192z
		 M1,198H0v3h1V198L1,198z M1,204H0v3h1V204L1,204z M1,210H0v3h1V210L1,210z M1,216H0v3h1V216L1,216z M1,222H0v3h1V222L1,222z
		 M1,228H0v3h1V228L1,228z M1,234H0v3h1V234L1,234z M1,240H0v3h1V240L1,240z M1,246H0v3h1V246L1,246z M1,252H0v3h1V252L1,252z
		 M1,258H0v3h1V258L1,258z M1,264H0v3h1V264L1,264z M1,270H0v3h1V270L1,270z M1,276H0v3h1V276L1,276z M1,282H0v3h1V282L1,282z
		 M1,288H0v3h1V288L1,288z M1,294H0v3h1V294L1,294z M3,299H0v1h3V299L3,299z M9,299H6v1h3V299L9,299z M15,299h-3v1h3V299L15,299z
		 M21,299h-3v1h3V299L21,299z M27,299h-3v1h3V299L27,299z M33,299h-3v1h3V299L33,299z M39,299h-3v1h3V299L39,299z M45,299h-3v1h3
		V299L45,299z M51,299h-3v1h3V299L51,299z M57,299h-3v1h3V299L57,299z M63,299h-3v1h3V299L63,299z M69,299h-3v1h3V299L69,299z
		 M75,299h-3v1h3V299L75,299z M81,299h-3v1h3V299L81,299z M87,299h-3v1h3V299L87,299z M93,299h-3v1h3V299L93,299z M99,299h-3v1h3
		V299L99,299z M105,299h-3v1h3V299L105,299z M111,299h-3v1h3V299L111,299z M117,299h-3v1h3V299L117,299z M123,299h-3v1h3V299
		L123,299z M129,299h-3v1h3V299L129,299z M135,299h-3v1h3V299L135,299z M141,299h-3v1h3V299L141,299z M147,299h-3v1h3V299L147,299z
		 M153,299h-3v1h3V299L153,299z M159,299h-3v1h3V299L159,299z M165,299h-3v1h3V299L165,299z M171,299h-3v1h3V299L171,299z M177,299
		h-3v1h3V299L177,299z M183,299h-3v1h3V299L183,299z M189,299h-3v1h3V299L189,299z M195,299h-3v1h3V299L195,299z M201,299h-3v1h3
		V299L201,299z M207,299h-3v1h3V299L207,299z M213,299h-3v1h3V299L213,299z M219,299h-3v1h3V299L219,299z M225,299h-3v1h3V299
		L225,299z M231,299h-3v1h3V299L231,299z M237,299h-3v1h3V299L237,299z M243,299h-3v1h3V299L243,299z M249,299h-3v1h3V299L249,299z
		 M255,299h-3v1h3V299L255,299z M261,299h-3v1h3V299L261,299z M267,299h-3v1h3V299L267,299z M273,299h-3v1h3V299L273,299z M279,299
		h-3v1h3V299L279,299z M285,299h-3v1h3V299L285,299z M291,299h-3v1h3V299L291,299z M297,299h-3v1h3V299L297,299z M300,297h-1v3h1
		V297L300,297z M300,291h-1v3h1V291L300,291z M300,285h-1v3h1V285L300,285z M300,279h-1v3h1V279L300,279z M300,273h-1v3h1V273
		L300,273z M300,267h-1v3h1V267L300,267z M300,261h-1v3h1V261L300,261z M300,255h-1v3h1V255L300,255z M300,249h-1v3h1V249L300,249z
		 M300,243h-1v3h1V243L300,243z M300,237h-1v3h1V237L300,237z M300,231h-1v3h1V231L300,231z M300,225h-1v3h1V225L300,225z M300,219
		h-1v3h1V219L300,219z M300,213h-1v3h1V213L300,213z M300,207h-1v3h1V207L300,207z M300,201h-1v3h1V201L300,201z M300,195h-1v3h1
		V195L300,195z M300,189h-1v3h1V189L300,189z M300,183h-1v3h1V183L300,183z M300,177h-1v3h1V177L300,177z M300,171h-1v3h1V171
		L300,171z M300,165h-1v3h1V165L300,165z M300,159h-1v3h1V159L300,159z M300,153h-1v3h1V153L300,153z M300,147h-1v3h1V147L300,147z
		 M300,141h-1v3h1V141L300,141z M300,135h-1v3h1V135L300,135z M300,129h-1v3h1V129L300,129z M300,123h-1v3h1V123L300,123z M300,117
		h-1v3h1V117L300,117z M300,111h-1v3h1V111L300,111z M300,105h-1v3h1V105L300,105z M300,99h-1v3h1V99L300,99z M300,93h-1v3h1V93
		L300,93z M300,87h-1v3h1V87L300,87z M300,81h-1v3h1V81L300,81z M300,75h-1v3h1V75L300,75z M300,69h-1v3h1V69L300,69z M300,63h-1v3
		h1V63L300,63z M300,57h-1v3h1V57L300,57z M300,51h-1v3h1V51L300,51z M300,45h-1v3h1V45L300,45z M300,39h-1v3h1V39L300,39z M300,33
		h-1v3h1V33L300,33z M300,27h-1v3h1V27L300,27z M300,21h-1v3h1V21L300,21z M300,15h-1v3h1V15L300,15z M300,9h-1v3h1V9L300,9z M300,3
		h-1v3h1V3L300,3z"/>
</g>
<g>
	<path class="st1" d="M106.9,127.8H82.6v11.2c0,5.9-1.4,9.1-3.2,11.3c-1.2,1.5-2.6,2.7-4.3,3.3l-0.3-0.3c2.7-3.3,3.3-8,3.3-11.2
		v-17.2l5,2.1h6.4v-5.3l4.9,0.6c0.4,0,0.9,0.1,0.9,0.6c0,0.4-0.3,0.7-1.3,1v3.1h7.2l1.7-2.4c0.1-0.1,0.3-0.3,0.6-0.3
		c0.2,0,0.5,0.2,0.6,0.3l3.1,2.2c0.2,0.1,0.4,0.4,0.4,0.6C107.5,127.7,107.2,127.8,106.9,127.8z M104.1,153.7
		c-0.6,0-1.9-0.3-2.4-1.8c-0.2-0.6-0.6-3.3-0.8-3.9c-3,1.1-8,2.8-15.7,4.8c-0.1,0.2-0.5,1-0.6,1.2c-0.1,0.2-0.4,0.3-0.5,0.3
		c-0.4,0-0.5-0.4-0.6-0.6l-1.7-5.2c1.4,0,2.8-0.1,4.2-0.2c2.5-8.9,3.5-15.2,4-18l6.4,1.5c0.4,0.1,0.8,0.2,0.8,0.7
		c0,0.6-0.5,0.8-1.7,1c-3.5,7.5-6.5,12.3-8,14.7c4.4-0.3,8.7-0.6,13-1.2c-1.5-3.9-3.1-5.9-5.2-8.4l0.2-0.3
		c5.8,2.2,11.4,7.2,11.4,11.8C106.9,150.6,106.7,153.7,104.1,153.7z"/>
	<path class="st1" d="M143.6,136.3h-32.2l-0.4-0.8h14.4v-7.2h-5.7c-1.5,2.1-3.5,4.6-7.3,6.8l-0.3-0.3c3.3-5.1,4.1-9.9,4.5-12.9
		l5.9,2.1c0.5,0.2,0.6,0.4,0.6,0.7c0,0.8-0.9,0.7-1.4,0.7c-0.1,0.3-1,1.4-1.5,2.1h5v-6.2l5.4,0.5c0.2,0,0.8,0.1,0.8,0.7
		c0,0.5-0.4,0.7-1.4,1v4h4.8l2.1-2.4c0.3-0.3,0.4-0.3,0.6-0.3c0.3,0,0.5,0.2,0.6,0.3l2.4,2.1c0.2,0.2,0.4,0.4,0.4,0.6
		c0,0.4-0.3,0.5-0.6,0.5h-10.3v7.2h7.8l2.2-2.4c0.2-0.2,0.3-0.3,0.6-0.3c0.3,0,0.6,0.3,0.6,0.3l2.4,2.1c0.2,0.2,0.4,0.4,0.4,0.7
		C144.2,136.2,143.8,136.3,143.6,136.3z M139.2,142.8v9.4c0,0.5,0,0.9-0.3,1.2c-1,0.9-3,0.9-3.2,0.9c-1.1,0-1.1-0.5-1.1-1.4v-1.1
		h-13.7v0.7c0,0.6-0.4,0.9-0.9,1.2c-0.9,0.4-2.2,0.5-2.6,0.5c-0.8,0-1-0.3-1-0.9v-15.2l4.8,2.3h13.2l1-1.5c0.4-0.5,0.9-0.6,1-0.6
		c0.4,0,0.8,0.3,0.9,0.4l2.6,1.9c0.1,0.1,0.4,0.4,0.4,0.8C140.3,141.7,140.1,142.1,139.2,142.8z M134.6,141.2h-13.7v9.7h13.7V141.2z
		"/>
	<path class="st1" d="M179.3,125.8h-8.5v1.4c0,1-2.6,1.4-3.1,1.4c-0.6,0-1.3-0.2-1.3-0.9v-1.9h-5.3v1.4c0,1.1-2.4,1.6-3.1,1.6
		c-0.7,0-1.2-0.4-1.2-0.7v-2.2h-9.3l-0.4-0.8h9.7v-3.6l4.8,0.3c0.3,0,0.7,0.1,0.7,0.5c0,0.6-0.6,0.8-1.2,1v1.7h5.3v-3.7l4.9,0.4
		c0.4,0,0.7,0.3,0.7,0.6c0,0.6-0.8,0.9-1.2,1v1.7h3.5l1.5-2c0.1-0.2,0.3-0.4,0.6-0.4c0.2,0,0.3,0,0.7,0.3l2.5,1.8
		c0.1,0.1,0.4,0.3,0.4,0.6C179.9,125.6,179.5,125.8,179.3,125.8z M177.4,148c0,0.3,0,0.9-0.5,0.9c-0.4,0-2-0.6-4.6-2.6
		c-0.2,0.1-0.3,0.1-0.6,0.4c-0.1,0.5-0.7,3.6-0.8,3.9c-0.4,1.2-1,3.6-5,3.6c-0.4,0-0.8-0.1-0.8-0.5c0-0.1,0.1-0.7,0.1-0.9
		c0-1.7-0.4-1.8-3.9-2.4v-0.4c1,0,1.9,0.1,3.1,0.1c2.6,0,3,0,3.4-5.5h-4.4c-1.3,4-4.1,9.3-13.5,9.5v-0.4c5-1.1,8-5,9-9.1h-2.9
		c-3.7,2.7-7.3,3.6-8.5,3.9l-0.2-0.4c3.5-1.9,6.4-4.5,8.5-7.8h-8.2l-0.4-0.8h9c0.4-0.6,0.7-1.4,1.1-2.6h-0.5c0,1.3-3,1.5-3.3,1.5
		c-1.1,0-1.1-0.5-1.1-1v-10.2l4.6,1.9h13.1l1.3-1.3c0.3-0.3,0.6-0.5,1-0.5c0.3,0,0.7,0.1,0.9,0.3l2.1,1.4c0.2,0.1,0.5,0.5,0.5,0.8
		c0,0.4-0.3,0.8-1,1.4v4.9c0,0.4,0,0.9-0.9,1.3c-0.3,0.1-1.5,0.6-2.5,0.6c-1.1,0-1.1-0.7-1.1-1.1h-6.2c0,0.8-1.2,0.9-1.7,1
		c-0.3,0.4-0.6,0.9-1.2,1.6h12l1.7-2.1c0.1-0.2,0.3-0.4,0.6-0.4c0.2,0,0.3,0,0.7,0.3l2.8,1.9c0.2,0.1,0.4,0.3,0.4,0.6
		c0,0.4-0.3,0.5-0.6,0.5h-10.4c1.7,1.7,6,3.2,11.6,3.7v0.4C177.8,145.2,177.4,147.4,177.4,148z M170.4,130h-13.6v2.6h13.6V130z
		 M170.4,133.4h-13.6v2.7h13.6V133.4z M157,143.9h2c0.1-0.6,0.2-1,0.4-2.1C158.6,142.6,158,143.1,157,143.9z M167.2,140.4h-6.4
		c-0.1,0.1-0.3,0.3-0.4,0.5l4.2,0.6c0.4,0.1,0.5,0.4,0.5,0.5c0,0.2-0.2,0.6-1.1,0.9c-0.1,0.3-0.1,0.5-0.3,1h3.7l1.1-1.1
		c0,0,0.2-0.2,0.3-0.2C168.1,141.8,167.7,141.3,167.2,140.4z"/>
	<path class="st1" d="M216.1,143.6h-12.5c3.2,3.3,8.3,4.8,13,5.1l0,0.4c-0.8,0.3-2.1,0.8-2.6,2.6c-0.4,1.3-0.5,1.5-0.8,1.5
		c-2.5,0-8.9-3.9-10.8-9.5h-0.1v8.9c0,0.5,0,0.7-0.3,0.9c-0.3,0.3-1.5,1-2.7,1c-1.4,0-1.4-0.6-1.4-1.1v-6.4
		c-3.9,3.3-9.7,5.9-14.8,6.4l-0.1-0.4c4.7-1.9,8.9-5.4,11.4-9.3h-10.9l-0.4-0.8h14.8v-3.7h-5.3v0.8c0,1-1.5,1.5-3,1.5
		c-1.3,0-1.3-0.3-1.3-0.9v-10.3c-2.1,1.5-3.5,2.3-5.1,3l-0.2-0.3c2-1.7,5.7-6.7,6.8-11.6l5.7,1.4c0.1,0,0.5,0.1,0.5,0.4
		c0,0.5-0.8,0.5-1.4,0.6c-0.3,0.4-1,1.4-2.2,2.7l0.4,0.1h6.1c0.3-0.7,1.2-2.8,1.5-4.9l5.4,1c0.2,0,0.6,0.1,0.6,0.5
		c0,0.5-0.8,0.5-1.3,0.5c-1.4,1.2-2.7,2.2-3.9,3h7l1.8-2.2c0.2-0.3,0.4-0.3,0.6-0.3c0.1,0,0.2,0,0.6,0.3l2.6,1.9
		c0.2,0.1,0.4,0.4,0.4,0.6c0,0.4-0.3,0.5-0.6,0.5h-9.6c0,0.2,0.1,0.3,0.1,0.4c0,0.4,0,0.4-0.9,1v1.7h3.9l1.8-2.3
		c0.1-0.1,0.3-0.3,0.6-0.3c0.3,0,0.4,0.1,0.6,0.3l2.4,2c0.2,0.1,0.3,0.4,0.3,0.7c0,0.4-0.4,0.5-0.6,0.5h-9v3.1h4l1.8-2.1
		c0.2-0.3,0.4-0.4,0.5-0.4c0.3,0,0.4,0.1,0.7,0.4l2.3,1.7c0.1,0.1,0.3,0.4,0.3,0.6c0,0.3-0.3,0.5-0.6,0.5h-8.9v3.2h6.2l1.9-2.2
		c0.2-0.3,0.4-0.3,0.5-0.3c0.3,0,0.4,0.1,0.7,0.3l2.4,1.9c0.1,0.1,0.3,0.4,0.3,0.6c0,0.4-0.3,0.5-0.6,0.5h-11.4
		c0.2,1-0.3,1.2-0.8,1.4v2.3h8.6l1.8-2.4c0.1-0.2,0.3-0.4,0.6-0.4s0.4,0.1,0.6,0.3l2.4,2.1c0.2,0.1,0.3,0.4,0.3,0.6
		C216.7,143.5,216.4,143.6,216.1,143.6z M198.6,127.3h-6v3.1h6V127.3z M198.6,131.2h-6v3.1h6V131.2z M198.6,135.1h-6v3.2h6V135.1z"
		/>
</g>
<g>
	<path d="M73.1,179.3c-0.9,0.7-2.2,1-3.8,1c-0.5-0.1-0.8-0.2-0.9-0.3c1.7-0.6,3.2-1.7,4.2-3.2l-0.3-0.7c0-0.2,0.2-0.3,0.6-0.3h0.8
		c0.9,0.4,1.3,0.9,1.3,1.3C74.6,177.8,74,178.5,73.1,179.3z M78.8,180c0.1,1.3,0.1,2.3-0.2,2.9c-0.3,0.6-0.6,1-1.1,1.1
		c-1-0.4-2.2-1.4-3.6-2.8c-0.3-0.2-0.4-0.5-0.6-0.7c0.5,0.2,1,0.3,1.6,0.4h1.2c0.2-0.1,0.4-0.3,0.5-0.5c0.1-0.2,0.1-0.9,0.1-2
		c-0.1-1.5-0.1-3-0.1-4.5c-0.4,0-0.9,0-1.5,0.1c-0.4,0-0.8,0-1.2,0.1c-1.4-0.4-2.5-1-3.4-1.7c1.7-0.1,3.1-0.2,4.3-0.3
		c0.5,0,1.1,0,1.7-0.1c0.1-0.9,0.2-2.1,0.4-3.4c-0.3-0.3-0.5-0.7-0.8-1c-0.1-0.3-0.2-0.6-0.3-0.8c0.3-0.1,0.7-0.2,1.1-0.3
		c1.3,0.3,2.1,1.1,2.4,2.3c-0.3,0.9-0.5,2-0.7,3.1l1.4-0.2c0.2-0.1,0.4-0.2,0.6-0.4c0.6,0,1.2,0,2.1,0.1c0.8,0.2,1.3,0.4,1.6,0.8
		c0.2,0.3,0.2,0.6-0.1,0.8l-0.5,0.2c-2.2,0.3-3.9,0.5-5.2,0.6C78.7,176.5,78.7,178.6,78.8,180z M80.9,176.4c0.3-0.1,0.7-0.1,1,0
		c1,0.2,1.9,0.6,2.7,1.1c1.2,0.6,1.8,1.4,1.9,2.3c-0.1,0.3-0.2,0.5-0.5,0.7c-1.2-0.1-2.4-0.8-3.6-2.1
		C81.8,177.7,81.3,177.1,80.9,176.4z M84,167.6c0.7,0.1,1.2,0.4,1.7,0.9c0.5,0.7,0.4,1.1-0.3,1.1c-1.2-0.1-2-0.6-2.5-1.5
		c-0.1-0.2-0.2-0.3-0.3-0.5L84,167.6z M86.3,165.9c0.9,0.1,1.4,0.5,1.5,1.1c0,0.4-0.3,0.6-0.9,0.6c-0.5,0-1.3-0.5-2.5-1.5
		C84.9,165.8,85.6,165.7,86.3,165.9z"/>
	<path d="M101.1,178c-2.9,1.9-5.4,3.3-7.5,4.3c-0.3,0.3-0.6,0.5-0.8,0.7c-0.3-0.2-0.5-0.4-0.8-0.6c-0.4-0.3-0.7-0.7-0.8-1.1
		c0.1-0.7-0.1-1.4-0.7-2.3c1.1-0.1,1.9,0.1,2.4,0.6c0.7-0.1,2.1-0.6,4.1-1.5c2.1-0.9,3.8-1.8,5.3-2.8c0.7-0.4,1.2-0.8,1.6-1.2
		C103.7,175.4,102.7,176.7,101.1,178z M96.1,168.6c0.6,0.3,0.9,0.9,0.9,1.9c-0.3,0.3-0.6,0.4-1,0.4c-0.6,0-1.2-0.2-1.8-0.6
		c-0.7-0.4-1.6-1.2-2.8-2.4c0.4,0.1,0.8,0.1,1.3,0.2C94.3,168.1,95.4,168.3,96.1,168.6z"/>
	<path d="M110.7,170c-0.1,0.9-0.3,1.9-0.4,2.8c0.8,0,1.5-0.1,2.3-0.4c0.8-0.2,1.3-0.5,1.6-0.8c1.4,0.1,2.3,0.3,2.7,0.8
		c0.2,0.3,0.1,0.5-0.2,0.8c-0.9,0.5-1.8,0.8-2.8,0.9c-1,0.1-2.1,0.2-3.2,0.2c-0.3-0.1-0.5-0.2-0.8-0.4l-0.1,2c-0.1,1,0,1.8,0.1,2.4
		c0.4,0.8,1.2,1.2,2.4,1.2c1.7,0.1,2.8-0.1,3.4-0.4c0.8,0.2,1.6,0.5,2.3,0.8c0.4,0.3,0.6,0.6,0.6,0.9c0,0.3-0.1,0.6-0.4,0.8
		c-0.3,0.1-0.6,0.2-0.8,0.2c-0.9,0-2.6,0-5.1-0.1c-1.1-0.2-2-0.5-2.7-1c-0.9-0.8-1.5-1.6-1.6-2.5c-0.2-0.8-0.3-2.1-0.2-3.8
		c0.1-1.8,0.2-3.5,0.3-5.2c0-0.4-0.1-0.7-0.4-0.9c0.1-0.3,0.3-0.5,0.6-0.6C109.9,168.2,110.7,168.9,110.7,170z M117.4,168.4
		c0.6,0,1.2,0.2,1.8,0.7c0.3,0.3,0.4,0.7,0.2,1l-0.2,0.4c-0.6,0.2-1.1,0.1-1.5-0.4c-0.6-0.4-1.1-0.9-1.7-1.5
		c-0.2-0.2-0.2-0.3,0.1-0.3L117.4,168.4z M121.7,167.9c-0.1,0.3-0.3,0.4-0.7,0.5c-0.8,0.1-1.7-0.5-2.9-1.8c0.4-0.2,0.8-0.3,1.2-0.3
		C120.9,166.6,121.7,167.1,121.7,167.9z"/>
	<path d="M138.8,173.5c0.3,0.1,0.7,0.3,1,0.8c0.1,0.1,0.1,0.3-0.1,0.7c-0.2,0.3-0.6,0.4-1.2,0.4c-0.9,0-1.8,0-2.4-0.1
		c-1.5-0.1-2.6,0-3.4,0.1c-1,0.2-3.2,0.5-6.5,1c-0.5,0-0.8-0.1-1-0.3c-0.3-0.2-0.7-0.7-1.1-1.4c-0.3-0.4-0.3-0.8-0.1-0.9
		c0.2,0.1,0.6,0.2,1.1,0.3c0.5,0.1,1.1,0.2,1.9,0.2c1.1,0,2.3-0.1,3.5-0.2c1.1-0.1,2.3-0.2,3.5-0.4c0.8-0.1,1.4-0.2,2.1-0.2
		c0.6-0.1,1.1-0.1,1.7-0.1L138.8,173.5z"/>
	<path d="M152.3,168c0.4,0.3,0.6,0.7,0.6,1l-0.2,0.8l-0.2,0.8l2.8,0.3c0.2-0.1,0.5-0.1,0.9-0.2c0.3,0.2,0.7,0.4,1,0.6
		c0.8,0.4,1.1,0.9,1.1,1.3c-0.2,2.1-0.9,4.3-2.3,6.5c-1.5,2.3-4.1,3.7-7.7,4.3c-0.3,0.1-0.5,0-0.7-0.1c5-2.9,7.6-6.5,7.7-10.8
		c-1.5-0.2-2.9-0.3-4.1-0.3l-2.9,0.3c-0.7,0.1-1.3,0.2-1.7,0.4l-0.2,3.3c-0.2,0.5-0.6,0.7-1.1,0.7c-0.8-0.5-1.2-1.2-1.2-2.1l0.2-0.4
		c0-0.6,0-1.2,0-1.9c-0.1-0.4-0.2-0.8-0.3-1.1c-0.1-0.2-0.2-0.5-0.3-0.7c0.7-0.1,1.4,0.1,2.3,0.5c1.3-0.2,2.6-0.4,3.8-0.4
		c0.1-0.5,0.2-1.1,0.1-1.8c-0.1-0.4-0.4-0.9-0.8-1.4c0.5-0.2,1-0.3,1.4-0.3C151,167.3,151.6,167.5,152.3,168z"/>
	<path d="M172.6,170.5c0.1,0.2,0.1,0.4-0.1,0.8c0,0.9,0,1.8-0.1,2.5l1.4-0.1c0.2-0.2,0.5-0.3,0.8-0.3c0.8,0.2,1.3,0.4,1.7,0.7
		c0.4,0.3,0.5,0.6,0.3,0.9c-1.6,0.1-3,0.1-4.2,0.2l-0.1,1.8c0,0.9,0,1.8,0.1,2.4c0.1,0.7,0.1,1.2,0.2,1.5c0.2,1.2,0,2.1-0.5,2.8
		c-0.1,0.2-0.4,0.2-0.9,0c-0.8-0.4-1.3-0.8-1.7-1.3c-0.3-0.4-0.7-0.8-1-1.3c0.8,0.4,1.4,0.7,2,0.8l0.2-0.1c0.1-0.4,0.2-1.1,0.2-2
		c-0.1-1.4-0.1-2.4-0.2-2.8c-1.4,1.8-3.3,3.1-5.4,4c-0.9,0.3-1.7,0.4-2.4,0.4c2.3-0.9,4.4-2.7,6.5-5.4c0.1-0.2,0.3-0.4,0.5-0.7
		c-1.3,0.1-2.5,0.3-3.7,0.6c-0.5,0.1-1-0.1-1.5-0.6c-0.4-0.3-0.8-0.6-0.9-0.8c1.4-0.2,2.9-0.3,4.6-0.5c1.1-0.1,2-0.2,2.6-0.2l0.1-3
		c-0.2-0.2-0.3-0.5-0.5-0.8c0.2-0.2,0.6-0.3,0.9-0.3C171.8,169.8,172.2,170.1,172.6,170.5z"/>
	<path d="M195.5,173.5c0.3,0.1,0.7,0.3,1,0.8c0.1,0.1,0.1,0.3-0.1,0.7c-0.2,0.3-0.6,0.4-1.2,0.4c-0.9,0-1.8,0-2.4-0.1
		c-1.5-0.1-2.6,0-3.4,0.1c-1,0.2-3.2,0.5-6.5,1c-0.5,0-0.8-0.1-1-0.3c-0.3-0.2-0.7-0.7-1.1-1.4c-0.3-0.4-0.3-0.8-0.1-0.9
		c0.2,0.1,0.6,0.2,1.1,0.3c0.5,0.1,1.1,0.2,1.9,0.2c1.1,0,2.3-0.1,3.5-0.2c1.1-0.1,2.3-0.2,3.5-0.4c0.8-0.1,1.4-0.2,2.1-0.2
		c0.6-0.1,1.1-0.1,1.7-0.1L195.5,173.5z"/>
	<path d="M210.8,167.5c0.6,0.5,0.8,0.9,0.8,1.3c0,0.4-0.2,0.9-0.5,1.5l-0.3,0.8c0.5,0.1,1.4,0.1,2.8,0.2c0.2-0.1,0.5-0.2,0.8-0.3
		c0.5,0.1,1.2,0.6,2,1.3c0.4,0.4,0.4,0.8,0,1.2c-0.4,1.8-1.1,3.6-2.2,5.4c-1.5,2.6-3.1,4-4.7,4.4c-1.2-1.2-1.9-2.1-2.2-2.6
		c-0.4-0.4-0.7-0.9-0.9-1.4c1.2,0.3,2.3,0.6,3.3,0.8c2.1-1.4,3.5-3.8,4.1-7.2H212c-0.8,0-1.5,0.1-2.2,0.2l-0.7,1
		c-2.2,3.4-4.6,5.3-7.3,5.6c-0.5,0-0.9,0-1.3-0.1c0.8-0.2,1.8-0.9,3-2c1.4-1.4,2.6-2.8,3.5-4.2l-1.3,0.1c-0.4-0.1-0.7-0.2-1-0.3
		c-0.6-0.2-1-0.5-1.4-0.8c-0.3-0.2-0.4-0.4-0.5-0.6c1.7-0.4,3.2-0.6,4.4-0.7c0.4,0,0.8,0,1-0.1c0.4-0.9,0.6-1.7,0.7-2.3
		c0-0.6-0.2-1.1-0.7-1.5c0.4-0.2,0.8-0.3,1.3-0.3C210.1,167.1,210.5,167.2,210.8,167.5z"/>
	<path d="M235.5,173.5c0.3,0.1,0.7,0.3,1,0.8c0.1,0.1,0.1,0.3-0.1,0.7c-0.2,0.3-0.6,0.4-1.2,0.4c-0.9,0-1.8,0-2.4-0.1
		c-1.5-0.1-2.6,0-3.4,0.1c-1,0.2-3.2,0.5-6.5,1c-0.5,0-0.8-0.1-1-0.3c-0.3-0.2-0.7-0.7-1.1-1.4c-0.3-0.4-0.3-0.8-0.1-0.9
		c0.2,0.1,0.6,0.2,1.1,0.3c0.5,0.1,1.1,0.2,1.9,0.2c1.1,0,2.3-0.1,3.5-0.2c1.1-0.1,2.3-0.2,3.5-0.4c0.8-0.1,1.4-0.2,2.1-0.2
		c0.6-0.1,1.1-0.1,1.7-0.1L235.5,173.5z"/>
</g>
<g>
</g>
<g>
</g>
<g>
</g>
<g>
</g>
<g>
</g>
<g>
</g>
<g>
</g>
<g>
</g>
<g>
</g>
<g>
</g>
<g>
</g>
<g>
</g>
<g>
</g>
<g>
</g>
<g>
</g>
</svg>
